<?xml version="1.0" encoding="UTF-8" standalone="no"?><svg xmlns="http://www.w3.org/2000/svg" xmlns:xlink="http://www.w3.org/1999/xlink" contentScriptType="application/ecmascript" contentStyleType="text/css" height="799px" preserveAspectRatio="none" style="width:1098px;height:799px;" version="1.1" viewBox="0 0 1098 799" width="1098px" zoomAndPan="magnify"><defs><filter height="300%" id="fvfqpzmtuigpe" width="300%" x="-1" y="-1"><feGaussianBlur result="blurOut" stdDeviation="2.0"/><feColorMatrix in="blurOut" result="blurOut2" type="matrix" values="0 0 0 0 0 0 0 0 0 0 0 0 0 0 0 0 0 0 .4 0"/><feOffset dx="4.0" dy="4.0" in="blurOut2" result="blurOut3"/><feBlend in="SourceGraphic" in2="blurOut3" mode="normal"/></filter></defs><g><rect fill="#FFFFFF" filter="url(#fvfqpzmtuigpe)" height="604.625" style="stroke: #A80036; stroke-width: 1.0;" width="10" x="62" y="97.6094"/><rect fill="#FFFFFF" filter="url(#fvfqpzmtuigpe)" height="597.625" style="stroke: #A80036; stroke-width: 1.0;" width="10" x="167" y="103.6094"/><rect fill="#FFFFFF" filter="url(#fvfqpzmtuigpe)" height="14" style="stroke: #A80036; stroke-width: 1.0;" width="10" x="353" y="133.9609"/><rect fill="#FFFFFF" filter="url(#fvfqpzmtuigpe)" height="393.8672" style="stroke: #A80036; stroke-width: 1.0;" width="10" x="353" y="222.6641"/><rect fill="#FFFFFF" filter="url(#fvfqpzmtuigpe)" height="14" style="stroke: #A80036; stroke-width: 1.0;" width="10" x="505" y="178.3125"/><rect fill="#FFFFFF" filter="url(#fvfqpzmtuigpe)" height="228.4609" style="stroke: #A80036; stroke-width: 1.0;" width="10" x="642" y="278.3672"/><rect fill="#FFFFFF" filter="url(#fvfqpzmtuigpe)" height="167.7578" style="stroke: #A80036; stroke-width: 1.0;" width="10" x="781" y="308.7188"/><rect fill="#FFFFFF" filter="url(#fvfqpzmtuigpe)" height="58.3516" style="stroke: #A80036; stroke-width: 1.0;" width="10" x="781" y="537.1797"/><rect fill="#FFFFFF" filter="url(#fvfqpzmtuigpe)" height="14" style="stroke: #A80036; stroke-width: 1.0;" width="10" x="781" y="672.2344"/><rect fill="#FFFFFF" filter="url(#fvfqpzmtuigpe)" height="14" style="stroke: #A80036; stroke-width: 1.0;" width="10" x="964" y="339.0703"/><rect fill="#FFFFFF" filter="url(#fvfqpzmtuigpe)" height="30.3516" style="stroke: #A80036; stroke-width: 1.0;" width="10" x="964" y="408.7734"/><rect fill="#FFFFFF" filter="url(#fvfqpzmtuigpe)" height="14" style="stroke: #A80036; stroke-width: 1.0;" width="10" x="964" y="567.5313"/><rect fill="#FFFFFF" filter="url(#fvfqpzmtuigpe)" height="365.8672" style="stroke: #000000; stroke-width: 2.0;" width="809" x="278.5" y="237.6641"/><rect fill="#FFFFFF" filter="url(#fvfqpzmtuigpe)" height="79.0547" style="stroke: #000000; stroke-width: 2.0;" width="376" x="701.5" y="368.0703"/><rect fill="#FFFFFF" filter="url(#fvfqpzmtuigpe)" height="62.7031" style="stroke: #000000; stroke-width: 2.0;" width="744.5" x="126" y="631.5313"/><line style="stroke: #A80036; stroke-width: 1.0; stroke-dasharray: 5.0,5.0;" x1="67" x2="67" y1="87.6094" y2="711.2344"/><line style="stroke: #A80036; stroke-width: 1.0; stroke-dasharray: 5.0,5.0;" x1="172" x2="172" y1="87.6094" y2="711.2344"/><line style="stroke: #A80036; stroke-width: 1.0; stroke-dasharray: 5.0,5.0;" x1="357.5" x2="357.5" y1="87.6094" y2="711.2344"/><line style="stroke: #A80036; stroke-width: 1.0; stroke-dasharray: 5.0,5.0;" x1="509.5" x2="509.5" y1="87.6094" y2="711.2344"/><line style="stroke: #A80036; stroke-width: 1.0; stroke-dasharray: 5.0,5.0;" x1="646.5" x2="646.5" y1="87.6094" y2="711.2344"/><line style="stroke: #A80036; stroke-width: 1.0; stroke-dasharray: 5.0,5.0;" x1="785.5" x2="785.5" y1="87.6094" y2="711.2344"/><line style="stroke: #A80036; stroke-width: 1.0; stroke-dasharray: 5.0,5.0;" x1="968.5" x2="968.5" y1="87.6094" y2="711.2344"/><text fill="#000000" font-family="sans-serif" font-size="14" lengthAdjust="spacingAndGlyphs" textLength="112" x="8" y="84.5332">TinyTaskServices</text><ellipse cx="67" cy="13" fill="#FEFECE" filter="url(#fvfqpzmtuigpe)" rx="8" ry="8" style="stroke: #A80036; stroke-width: 2.0;"/><path d="M67,21 L67,48 M54,29 L80,29 M67,48 L54,63 M67,48 L80,63 " fill="none" filter="url(#fvfqpzmtuigpe)" style="stroke: #A80036; stroke-width: 2.0;"/><text fill="#000000" font-family="sans-serif" font-size="14" lengthAdjust="spacingAndGlyphs" textLength="112" x="8" y="724.7676">TinyTaskServices</text><ellipse cx="67" cy="737.8438" fill="#FEFECE" filter="url(#fvfqpzmtuigpe)" rx="8" ry="8" style="stroke: #A80036; stroke-width: 2.0;"/><path d="M67,745.8438 L67,772.8438 M54,753.8438 L80,753.8438 M67,772.8438 L54,787.8438 M67,772.8438 L80,787.8438 " fill="none" filter="url(#fvfqpzmtuigpe)" style="stroke: #A80036; stroke-width: 2.0;"/><rect fill="#FEFECE" filter="url(#fvfqpzmtuigpe)" height="31.6094" style="stroke: #A80036; stroke-width: 1.5;" width="68" x="136" y="51"/><text fill="#000000" font-family="sans-serif" font-size="14" lengthAdjust="spacingAndGlyphs" textLength="54" x="143" y="72.5332">Program</text><rect fill="#FEFECE" filter="url(#fvfqpzmtuigpe)" height="31.6094" style="stroke: #A80036; stroke-width: 1.5;" width="68" x="136" y="710.2344"/><text fill="#000000" font-family="sans-serif" font-size="14" lengthAdjust="spacingAndGlyphs" textLength="54" x="143" y="731.7676">Program</text><rect fill="#FEFECE" filter="url(#fvfqpzmtuigpe)" height="31.6094" style="stroke: #A80036; stroke-width: 1.5;" width="135" x="288.5" y="51"/><text fill="#000000" font-family="sans-serif" font-size="14" lengthAdjust="spacingAndGlyphs" textLength="121" x="295.5" y="72.5332">manager : Workers</text><rect fill="#FEFECE" filter="url(#fvfqpzmtuigpe)" height="31.6094" style="stroke: #A80036; stroke-width: 1.5;" width="135" x="288.5" y="710.2344"/><text fill="#000000" font-family="sans-serif" font-size="14" lengthAdjust="spacingAndGlyphs" textLength="121" x="295.5" y="731.7676">manager : Workers</text><rect fill="#FEFECE" filter="url(#fvfqpzmtuigpe)" height="31.6094" style="stroke: #A80036; stroke-width: 1.5;" width="141" x="437.5" y="51"/><text fill="#000000" font-family="sans-serif" font-size="14" lengthAdjust="spacingAndGlyphs" textLength="127" x="444.5" y="72.5332">workers : IDictionary</text><rect fill="#FEFECE" filter="url(#fvfqpzmtuigpe)" height="31.6094" style="stroke: #A80036; stroke-width: 1.5;" width="141" x="437.5" y="710.2344"/><text fill="#000000" font-family="sans-serif" font-size="14" lengthAdjust="spacingAndGlyphs" textLength="127" x="444.5" y="731.7676">workers : IDictionary</text><rect fill="#FEFECE" filter="url(#fvfqpzmtuigpe)" height="31.6094" style="stroke: #A80036; stroke-width: 1.5;" width="105" x="592.5" y="51"/><text fill="#000000" font-family="sans-serif" font-size="14" lengthAdjust="spacingAndGlyphs" textLength="91" x="599.5" y="72.5332">DefaultWorker</text><rect fill="#FEFECE" filter="url(#fvfqpzmtuigpe)" height="31.6094" style="stroke: #A80036; stroke-width: 1.5;" width="105" x="592.5" y="710.2344"/><text fill="#000000" font-family="sans-serif" font-size="14" lengthAdjust="spacingAndGlyphs" textLength="91" x="599.5" y="731.7676">DefaultWorker</text><rect fill="#FEFECE" filter="url(#fvfqpzmtuigpe)" height="31.6094" style="stroke: #A80036; stroke-width: 1.5;" width="145" x="711.5" y="51"/><text fill="#000000" font-family="sans-serif" font-size="14" lengthAdjust="spacingAndGlyphs" textLength="131" x="718.5" y="72.5332">worker : SyncWorker</text><rect fill="#FEFECE" filter="url(#fvfqpzmtuigpe)" height="31.6094" style="stroke: #A80036; stroke-width: 1.5;" width="145" x="711.5" y="710.2344"/><text fill="#000000" font-family="sans-serif" font-size="14" lengthAdjust="spacingAndGlyphs" textLength="131" x="718.5" y="731.7676">worker : SyncWorker</text><rect fill="#FEFECE" filter="url(#fvfqpzmtuigpe)" height="31.6094" style="stroke: #A80036; stroke-width: 1.5;" width="193" x="870.5" y="51"/><text fill="#000000" font-family="sans-serif" font-size="14" lengthAdjust="spacingAndGlyphs" textLength="179" x="877.5" y="72.5332">preferences : PreferenceSet</text><rect fill="#FEFECE" filter="url(#fvfqpzmtuigpe)" height="31.6094" style="stroke: #A80036; stroke-width: 1.5;" width="193" x="870.5" y="710.2344"/><text fill="#000000" font-family="sans-serif" font-size="14" lengthAdjust="spacingAndGlyphs" textLength="179" x="877.5" y="731.7676">preferences : PreferenceSet</text><rect fill="#FFFFFF" filter="url(#fvfqpzmtuigpe)" height="604.625" style="stroke: #A80036; stroke-width: 1.0;" width="10" x="62" y="97.6094"/><rect fill="#FFFFFF" filter="url(#fvfqpzmtuigpe)" height="597.625" style="stroke: #A80036; stroke-width: 1.0;" width="10" x="167" y="103.6094"/><rect fill="#FFFFFF" filter="url(#fvfqpzmtuigpe)" height="14" style="stroke: #A80036; stroke-width: 1.0;" width="10" x="353" y="133.9609"/><rect fill="#FFFFFF" filter="url(#fvfqpzmtuigpe)" height="393.8672" style="stroke: #A80036; stroke-width: 1.0;" width="10" x="353" y="222.6641"/><rect fill="#FFFFFF" filter="url(#fvfqpzmtuigpe)" height="14" style="stroke: #A80036; stroke-width: 1.0;" width="10" x="505" y="178.3125"/><rect fill="#FFFFFF" filter="url(#fvfqpzmtuigpe)" height="228.4609" style="stroke: #A80036; stroke-width: 1.0;" width="10" x="642" y="278.3672"/><rect fill="#FFFFFF" filter="url(#fvfqpzmtuigpe)" height="167.7578" style="stroke: #A80036; stroke-width: 1.0;" width="10" x="781" y="308.7188"/><rect fill="#FFFFFF" filter="url(#fvfqpzmtuigpe)" height="58.3516" style="stroke: #A80036; stroke-width: 1.0;" width="10" x="781" y="537.1797"/><rect fill="#FFFFFF" filter="url(#fvfqpzmtuigpe)" height="14" style="stroke: #A80036; stroke-width: 1.0;" width="10" x="781" y="672.2344"/><rect fill="#FFFFFF" filter="url(#fvfqpzmtuigpe)" height="14" style="stroke: #A80036; stroke-width: 1.0;" width="10" x="964" y="339.0703"/><rect fill="#FFFFFF" filter="url(#fvfqpzmtuigpe)" height="30.3516" style="stroke: #A80036; stroke-width: 1.0;" width="10" x="964" y="408.7734"/><rect fill="#FFFFFF" filter="url(#fvfqpzmtuigpe)" height="14" style="stroke: #A80036; stroke-width: 1.0;" width="10" x="964" y="567.5313"/><polygon fill="#A80036" points="155,99.6094,165,103.6094,155,107.6094,159,103.6094" style="stroke: #A80036; stroke-width: 1.0;"/><line style="stroke: #A80036; stroke-width: 1.0;" x1="72" x2="161" y1="103.6094" y2="103.6094"/><polygon fill="#A80036" points="341,129.9609,351,133.9609,341,137.9609,345,133.9609" style="stroke: #A80036; stroke-width: 1.0;"/><line style="stroke: #A80036; stroke-width: 1.0;" x1="177" x2="347" y1="133.9609" y2="133.9609"/><text fill="#000000" font-family="sans-serif" font-size="13" lengthAdjust="spacingAndGlyphs" textLength="157" x="184" y="129.1045">new Workers(configuration)</text><polygon fill="#A80036" points="188,143.9609,178,147.9609,188,151.9609,184,147.9609" style="stroke: #A80036; stroke-width: 1.0;"/><line style="stroke: #A80036; stroke-width: 1.0; stroke-dasharray: 2.0,2.0;" x1="182" x2="357" y1="147.9609" y2="147.9609"/><polygon fill="#A80036" points="493,174.3125,503,178.3125,493,182.3125,497,178.3125" style="stroke: #A80036; stroke-width: 1.0;"/><line style="stroke: #A80036; stroke-width: 1.0;" x1="177" x2="499" y1="178.3125" y2="178.3125"/><text fill="#000000" font-family="sans-serif" font-size="13" lengthAdjust="spacingAndGlyphs" textLength="189" x="184" y="173.4561">new Dictionary&lt;Guid, IWorker&gt;()</text><polygon fill="#A80036" points="188,188.3125,178,192.3125,188,196.3125,184,192.3125" style="stroke: #A80036; stroke-width: 1.0;"/><line style="stroke: #A80036; stroke-width: 1.0; stroke-dasharray: 2.0,2.0;" x1="182" x2="509" y1="192.3125" y2="192.3125"/><polygon fill="#A80036" points="341,218.6641,351,222.6641,341,226.6641,345,222.6641" style="stroke: #A80036; stroke-width: 1.0;"/><line style="stroke: #A80036; stroke-width: 1.0;" x1="177" x2="347" y1="222.6641" y2="222.6641"/><text fill="#000000" font-family="sans-serif" font-size="13" lengthAdjust="spacingAndGlyphs" textLength="81" x="184" y="217.8076">Load(workers)</text><path d="M278.5,237.6641 L351.5,237.6641 L351.5,245.6641 L341.5,255.6641 L278.5,255.6641 L278.5,237.6641 " fill="#EEEEEE" style="stroke: #000000; stroke-width: 1.0;"/><rect fill="none" height="365.8672" style="stroke: #000000; stroke-width: 2.0;" width="809" x="278.5" y="237.6641"/><text fill="#000000" font-family="sans-serif" font-size="13" font-weight="bold" lengthAdjust="spacingAndGlyphs" textLength="28" x="293.5" y="252.1592">loop</text><text fill="#000000" font-family="sans-serif" font-size="11" font-weight="bold" lengthAdjust="spacingAndGlyphs" textLength="132" x="366.5" y="251.083">[foreach entry in config]</text><polygon fill="#A80036" points="630,274.3672,640,278.3672,630,282.3672,634,278.3672" style="stroke: #A80036; stroke-width: 1.0;"/><line style="stroke: #A80036; stroke-width: 1.0;" x1="363" x2="636" y1="278.3672" y2="278.3672"/><text fill="#000000" font-family="sans-serif" font-size="13" lengthAdjust="spacingAndGlyphs" text-decoration="underline" textLength="174" x="370" y="273.5107">Instantiate(clazz, group, label)</text><polygon fill="#A80036" points="769,304.7188,779,308.7188,769,312.7188,773,308.7188" style="stroke: #A80036; stroke-width: 1.0;"/><line style="stroke: #A80036; stroke-width: 1.0;" x1="652" x2="775" y1="308.7188" y2="308.7188"/><text fill="#000000" font-family="sans-serif" font-size="13" lengthAdjust="spacingAndGlyphs" textLength="31" x="659" y="303.8623">new()</text><polygon fill="#A80036" points="952,335.0703,962,339.0703,952,343.0703,956,339.0703" style="stroke: #A80036; stroke-width: 1.0;"/><line style="stroke: #A80036; stroke-width: 1.0;" x1="791" x2="958" y1="339.0703" y2="339.0703"/><text fill="#000000" font-family="sans-serif" font-size="13" lengthAdjust="spacingAndGlyphs" textLength="117" x="798" y="334.2139">new PreferenceSet()</text><polygon fill="#A80036" points="802,349.0703,792,353.0703,802,357.0703,798,353.0703" style="stroke: #A80036; stroke-width: 1.0;"/><line style="stroke: #A80036; stroke-width: 1.0; stroke-dasharray: 2.0,2.0;" x1="796" x2="968" y1="353.0703" y2="353.0703"/><path d="M701.5,368.0703 L802.5,368.0703 L802.5,376.0703 L792.5,386.0703 L701.5,386.0703 L701.5,368.0703 " fill="#EEEEEE" style="stroke: #000000; stroke-width: 1.0;"/><rect fill="none" height="79.0547" style="stroke: #000000; stroke-width: 2.0;" width="376" x="701.5" y="368.0703"/><text fill="#000000" font-family="sans-serif" font-size="13" font-weight="bold" lengthAdjust="spacingAndGlyphs" textLength="56" x="716.5" y="382.5654">example</text><polygon fill="#A80036" points="952,404.7734,962,408.7734,952,412.7734,956,408.7734" style="stroke: #A80036; stroke-width: 1.0;"/><line style="stroke: #A80036; stroke-width: 1.0;" x1="791" x2="958" y1="408.7734" y2="408.7734"/><text fill="#000000" font-family="sans-serif" font-size="13" lengthAdjust="spacingAndGlyphs" textLength="146" x="798" y="403.917">Preference&lt;Type&gt;(name)</text><polygon fill="#A80036" points="802,435.125,792,439.125,802,443.125,798,439.125" style="stroke: #A80036; stroke-width: 1.0;"/><line style="stroke: #A80036; stroke-width: 1.0;" x1="796" x2="968" y1="439.125" y2="439.125"/><text fill="#000000" font-family="sans-serif" font-size="13" lengthAdjust="spacingAndGlyphs" textLength="97" x="808" y="434.2686">return preference</text><polygon fill="#A80036" points="663,472.4766,653,476.4766,663,480.4766,659,476.4766" style="stroke: #A80036; stroke-width: 1.0;"/><line style="stroke: #A80036; stroke-width: 1.0; stroke-dasharray: 2.0,2.0;" x1="657" x2="785" y1="476.4766" y2="476.4766"/><text fill="#000000" font-family="sans-serif" font-size="13" lengthAdjust="spacingAndGlyphs" textLength="38" x="669" y="471.6201">worker</text><polygon fill="#A80036" points="374,502.8281,364,506.8281,374,510.8281,370,506.8281" style="stroke: #A80036; stroke-width: 1.0;"/><line style="stroke: #A80036; stroke-width: 1.0; stroke-dasharray: 2.0,2.0;" x1="368" x2="646" y1="506.8281" y2="506.8281"/><text fill="#000000" font-family="sans-serif" font-size="13" lengthAdjust="spacingAndGlyphs" textLength="38" x="380" y="501.9717">worker</text><polygon fill="#A80036" points="769,533.1797,779,537.1797,769,541.1797,773,537.1797" style="stroke: #A80036; stroke-width: 1.0;"/><line style="stroke: #A80036; stroke-width: 1.0;" x1="363" x2="775" y1="537.1797" y2="537.1797"/><text fill="#000000" font-family="sans-serif" font-size="13" lengthAdjust="spacingAndGlyphs" textLength="150" x="370" y="532.3232">LoadPreferences(payload)</text><polygon fill="#A80036" points="952,563.5313,962,567.5313,952,571.5313,956,567.5313" style="stroke: #A80036; stroke-width: 1.0;"/><line style="stroke: #A80036; stroke-width: 1.0;" x1="791" x2="958" y1="567.5313" y2="567.5313"/><text fill="#000000" font-family="sans-serif" font-size="13" lengthAdjust="spacingAndGlyphs" textLength="76" x="798" y="562.6748">Load(stream)</text><polygon fill="#A80036" points="802,577.5313,792,581.5313,802,585.5313,798,581.5313" style="stroke: #A80036; stroke-width: 1.0;"/><line style="stroke: #A80036; stroke-width: 1.0; stroke-dasharray: 2.0,2.0;" x1="796" x2="968" y1="581.5313" y2="581.5313"/><polygon fill="#A80036" points="374,591.5313,364,595.5313,374,599.5313,370,595.5313" style="stroke: #A80036; stroke-width: 1.0;"/><line style="stroke: #A80036; stroke-width: 1.0; stroke-dasharray: 2.0,2.0;" x1="368" x2="785" y1="595.5313" y2="595.5313"/><polygon fill="#A80036" points="188,612.5313,178,616.5313,188,620.5313,184,616.5313" style="stroke: #A80036; stroke-width: 1.0;"/><line style="stroke: #A80036; stroke-width: 1.0; stroke-dasharray: 2.0,2.0;" x1="182" x2="357" y1="616.5313" y2="616.5313"/><path d="M126,631.5313 L199,631.5313 L199,639.5313 L189,649.5313 L126,649.5313 L126,631.5313 " fill="#EEEEEE" style="stroke: #000000; stroke-width: 1.0;"/><rect fill="none" height="62.7031" style="stroke: #000000; stroke-width: 2.0;" width="744.5" x="126" y="631.5313"/><text fill="#000000" font-family="sans-serif" font-size="13" font-weight="bold" lengthAdjust="spacingAndGlyphs" textLength="28" x="141" y="646.0264">loop</text><text fill="#000000" font-family="sans-serif" font-size="11" font-weight="bold" lengthAdjust="spacingAndGlyphs" textLength="134" x="214" y="644.9502">[foreach loaded worker]</text><polygon fill="#A80036" points="769,668.2344,779,672.2344,769,676.2344,773,672.2344" style="stroke: #A80036; stroke-width: 1.0;"/><line style="stroke: #A80036; stroke-width: 1.0; stroke-dasharray: 2.0,2.0;" x1="177" x2="775" y1="672.2344" y2="672.2344"/><text fill="#000000" font-family="sans-serif" font-size="13" lengthAdjust="spacingAndGlyphs" textLength="78" x="184" y="667.3779">StartWorker()</text><polygon fill="#A80036" points="188,682.2344,178,686.2344,188,690.2344,184,686.2344" style="stroke: #A80036; stroke-width: 1.0;"/><line style="stroke: #A80036; stroke-width: 1.0; stroke-dasharray: 2.0,2.0;" x1="182" x2="785" y1="686.2344" y2="686.2344"/><!--
@startuml TinyTask

actor TinyTaskServices

participant "Program" as program
participant "manager : Workers" as manager
participant "workers : IDictionary" as workers
participant "DefaultWorker" as default 
participant "worker : SyncWorker" as worker
participant "preferences : PreferenceSet" as preferences

activate TinyTaskServices
TinyTaskServices -> program
activate program

program -> manager : new Workers(configuration)
activate manager
manager - -> program
deactivate manager

program -> workers : new Dictionary<Guid, IWorker>()
activate workers
workers - -> program
deactivate workers

program-> manager : Load(workers)
activate manager
loop foreach entry in config

    manager -> default : <u>Instantiate(clazz, group, label)</u>

    activate default
    
    default -> worker : new()
    activate worker

    worker -> preferences : new PreferenceSet()
    activate preferences
    preferences - -> worker
    deactivate preferences

    group example
        worker -> preferences : Preference<Type>(name)
        activate preferences
        preferences -> worker : return preference
        deactivate preferences
    end

    worker - -> default : worker
    deactivate worker

    default - -> manager : worker
    deactivate default

    manager -> worker : LoadPreferences(payload)
    activate worker
    worker -> preferences : Load(stream)
    activate preferences
    preferences - -> worker
    deactivate preferences
    worker - -> manager
    deactivate worker
end

manager - -> program
deactivate manager

loop foreach loaded worker
    program - -> worker : StartWorker()
    activate worker
    worker - -> program
    deactivate worker
end

deactivate program
@enduml

PlantUML version 1.2019.06(Fri May 24 19:10:25 CEST 2019)
(GPL source distribution)
Java Runtime: OpenJDK Runtime Environment
JVM: OpenJDK 64-Bit Server VM
Java Version: 1.8.0_212-b03
Operating System: Windows 10
OS Version: 10.0
Default Encoding: Cp1252
Language: de
Country: DE
--></g></svg>