<?xml version="1.0" encoding="UTF-8" standalone="no"?><svg xmlns="http://www.w3.org/2000/svg" xmlns:xlink="http://www.w3.org/1999/xlink" contentScriptType="application/ecmascript" contentStyleType="text/css" height="1117px" preserveAspectRatio="none" style="width:690px;height:1117px;" version="1.1" viewBox="0 0 690 1117" width="690px" zoomAndPan="magnify"><defs><filter height="300%" id="feka73f99b0vr" width="300%" x="-1" y="-1"><feGaussianBlur result="blurOut" stdDeviation="2.0"/><feColorMatrix in="blurOut" result="blurOut2" type="matrix" values="0 0 0 0 0 0 0 0 0 0 0 0 0 0 0 0 0 0 .4 0"/><feOffset dx="4.0" dy="4.0" in="blurOut2" result="blurOut3"/><feBlend in="SourceGraphic" in2="blurOut3" mode="normal"/></filter></defs><g><!--cluster app.common--><polygon fill="#FFFFFF" filter="url(#feka73f99b0vr)" points="22,24,117,24,124,47.6094,668,47.6094,668,972,22,972,22,24" style="stroke: #000000; stroke-width: 1.5;"/><line style="stroke: #000000; stroke-width: 1.5;" x1="22" x2="124" y1="47.6094" y2="47.6094"/><text fill="#000000" font-family="sans-serif" font-size="14" font-weight="bold" lengthAdjust="spacingAndGlyphs" textLength="89" x="26" y="40.5332">app.common</text><!--cluster app.window--><polygon fill="#FFFFFF" filter="url(#feka73f99b0vr)" points="508,1005,597,1005,604,1028.6094,646,1028.6094,646,1105,508,1105,508,1005" style="stroke: #000000; stroke-width: 1.5;"/><line style="stroke: #000000; stroke-width: 1.5;" x1="508" x2="604" y1="1028.6094" y2="1028.6094"/><text fill="#000000" font-family="sans-serif" font-size="14" font-weight="bold" lengthAdjust="spacingAndGlyphs" textLength="83" x="512" y="1021.5332">app.window</text><!--class Entrypoint--><rect fill="#FEFECE" filter="url(#feka73f99b0vr)" height="75.6719" id="Entrypoint" style="stroke: #A80036; stroke-width: 1.5;" width="151" x="203.5" y="60"/><ellipse cx="247.75" cy="76" fill="#ADD1B2" rx="11" ry="11" style="stroke: #A80036; stroke-width: 1.0;"/><path d="M250.5156,71.875 Q250.6719,71.6563 250.8594,71.5469 Q251.0469,71.4375 251.2656,71.4375 Q251.6406,71.4375 251.875,71.6953 Q252.1094,71.9531 252.1094,72.5625 L252.1094,74.0156 Q252.1094,74.625 251.875,74.8906 Q251.6406,75.1563 251.2656,75.1563 Q250.9219,75.1563 250.7188,74.9531 Q250.5156,74.7656 250.4063,74.25 Q250.3594,73.8906 250.1719,73.7031 Q249.8438,73.3281 249.2344,73.1094 Q248.625,72.8906 248,72.8906 Q247.2344,72.8906 246.6016,73.2188 Q245.9688,73.5469 245.4766,74.2969 Q244.9844,75.0469 244.9844,76.0781 L244.9844,77.1719 Q244.9844,78.4063 245.875,79.2266 Q246.7656,80.0469 248.3594,80.0469 Q249.2969,80.0469 249.9531,79.7969 Q250.3438,79.6406 250.7656,79.2031 Q251.0313,78.9375 251.1797,78.8594 Q251.3281,78.7813 251.5313,78.7813 Q251.8594,78.7813 252.1172,79.0391 Q252.375,79.2969 252.375,79.6406 Q252.375,79.9844 252.0313,80.3906 Q251.5313,80.9688 250.7344,81.2969 Q249.6563,81.75 248.3594,81.75 Q246.8438,81.75 245.6406,81.125 Q244.6563,80.625 243.9688,79.5547 Q243.2813,78.4844 243.2813,77.2031 L243.2813,76.0469 Q243.2813,74.7188 243.8984,73.5703 Q244.5156,72.4219 245.6094,71.8047 Q246.7031,71.1875 247.9375,71.1875 Q248.6719,71.1875 249.3203,71.3516 Q249.9688,71.5156 250.5156,71.875 Z "/><text fill="#000000" font-family="sans-serif" font-size="12" lengthAdjust="spacingAndGlyphs" textLength="54" x="268.25" y="80.9102">Entrypoint</text><line style="stroke: #A80036; stroke-width: 1.5;" x1="204.5" x2="353.5" y1="92" y2="92"/><rect fill="none" height="6" style="stroke: #C82930; stroke-width: 1.0;" width="6" x="211.5" y="101.418"/><text fill="#000000" font-family="sans-serif" font-size="11" lengthAdjust="spacingAndGlyphs" text-decoration="underline" textLength="125" x="223.5" y="107.4189">manager: WorkerManager</text><line style="stroke: #000000; stroke-width: 1.0;" x1="223.5" x2="348.5" y1="109.4189" y2="109.4189"/><line style="stroke: #A80036; stroke-width: 1.5;" x1="204.5" x2="353.5" y1="113.8359" y2="113.8359"/><ellipse cx="214.5" cy="126.2539" fill="#84BE84" rx="3" ry="3" style="stroke: #038048; stroke-width: 1.0;"/><text fill="#000000" font-family="sans-serif" font-size="11" lengthAdjust="spacingAndGlyphs" text-decoration="underline" textLength="114" x="223.5" y="129.2549">void Main(args: string[])</text><line style="stroke: #000000; stroke-width: 1.0;" x1="223.5" x2="337.5" y1="131.2549" y2="131.2549"/><!--class WorkerTypeRegister--><rect fill="#FEFECE" filter="url(#feka73f99b0vr)" height="70.0234" id="WorkerTypeRegister" style="stroke: #A80036; stroke-width: 1.5;" width="241" x="38.5" y="258.5"/><ellipse cx="98.75" cy="278.5938" fill="#ADD1B2" rx="11" ry="11" style="stroke: #A80036; stroke-width: 1.0;"/><path d="M101.5156,274.4688 Q101.6719,274.25 101.8594,274.1406 Q102.0469,274.0313 102.2656,274.0313 Q102.6406,274.0313 102.875,274.2891 Q103.1094,274.5469 103.1094,275.1563 L103.1094,276.6094 Q103.1094,277.2188 102.875,277.4844 Q102.6406,277.75 102.2656,277.75 Q101.9219,277.75 101.7188,277.5469 Q101.5156,277.3594 101.4063,276.8438 Q101.3594,276.4844 101.1719,276.2969 Q100.8438,275.9219 100.2344,275.7031 Q99.625,275.4844 99,275.4844 Q98.2344,275.4844 97.6016,275.8125 Q96.9688,276.1406 96.4766,276.8906 Q95.9844,277.6406 95.9844,278.6719 L95.9844,279.7656 Q95.9844,281 96.875,281.8203 Q97.7656,282.6406 99.3594,282.6406 Q100.2969,282.6406 100.9531,282.3906 Q101.3438,282.2344 101.7656,281.7969 Q102.0313,281.5313 102.1797,281.4531 Q102.3281,281.375 102.5313,281.375 Q102.8594,281.375 103.1172,281.6328 Q103.375,281.8906 103.375,282.2344 Q103.375,282.5781 103.0313,282.9844 Q102.5313,283.5625 101.7344,283.8906 Q100.6563,284.3438 99.3594,284.3438 Q97.8438,284.3438 96.6406,283.7188 Q95.6563,283.2188 94.9688,282.1484 Q94.2813,281.0781 94.2813,279.7969 L94.2813,278.6406 Q94.2813,277.3125 94.8984,276.1641 Q95.5156,275.0156 96.6094,274.3984 Q97.7031,273.7813 98.9375,273.7813 Q99.6719,273.7813 100.3203,273.9453 Q100.9688,274.1094 101.5156,274.4688 Z "/><text fill="#000000" font-family="sans-serif" font-size="12" font-style="italic" lengthAdjust="spacingAndGlyphs" textLength="42" x="154.25" y="275.957">«static»</text><text fill="#000000" font-family="sans-serif" font-size="12" lengthAdjust="spacingAndGlyphs" textLength="112" x="119.25" y="291.0508">WorkerTypeRegister</text><line style="stroke: #A80036; stroke-width: 1.5;" x1="39.5" x2="278.5" y1="298.6875" y2="298.6875"/><line style="stroke: #A80036; stroke-width: 1.5;" x1="39.5" x2="278.5" y1="306.6875" y2="306.6875"/><ellipse cx="49.5" cy="319.1055" fill="#84BE84" rx="3" ry="3" style="stroke: #038048; stroke-width: 1.0;"/><text fill="#000000" font-family="sans-serif" font-size="11" lengthAdjust="spacingAndGlyphs" textLength="215" x="58.5" y="322.1064">int Register(register: Directory&lt;Long, Type&gt;)</text><!--class WorkerManager--><rect fill="#FEFECE" filter="url(#feka73f99b0vr)" height="158.6875" id="WorkerManager" style="stroke: #A80036; stroke-width: 1.5;" width="337" x="314.5" y="214"/><ellipse cx="435.25" cy="230" fill="#ADD1B2" rx="11" ry="11" style="stroke: #A80036; stroke-width: 1.0;"/><path d="M438.0156,225.875 Q438.1719,225.6563 438.3594,225.5469 Q438.5469,225.4375 438.7656,225.4375 Q439.1406,225.4375 439.375,225.6953 Q439.6094,225.9531 439.6094,226.5625 L439.6094,228.0156 Q439.6094,228.625 439.375,228.8906 Q439.1406,229.1563 438.7656,229.1563 Q438.4219,229.1563 438.2188,228.9531 Q438.0156,228.7656 437.9063,228.25 Q437.8594,227.8906 437.6719,227.7031 Q437.3438,227.3281 436.7344,227.1094 Q436.125,226.8906 435.5,226.8906 Q434.7344,226.8906 434.1016,227.2188 Q433.4688,227.5469 432.9766,228.2969 Q432.4844,229.0469 432.4844,230.0781 L432.4844,231.1719 Q432.4844,232.4063 433.375,233.2266 Q434.2656,234.0469 435.8594,234.0469 Q436.7969,234.0469 437.4531,233.7969 Q437.8438,233.6406 438.2656,233.2031 Q438.5313,232.9375 438.6797,232.8594 Q438.8281,232.7813 439.0313,232.7813 Q439.3594,232.7813 439.6172,233.0391 Q439.875,233.2969 439.875,233.6406 Q439.875,233.9844 439.5313,234.3906 Q439.0313,234.9688 438.2344,235.2969 Q437.1563,235.75 435.8594,235.75 Q434.3438,235.75 433.1406,235.125 Q432.1563,234.625 431.4688,233.5547 Q430.7813,232.4844 430.7813,231.2031 L430.7813,230.0469 Q430.7813,228.7188 431.3984,227.5703 Q432.0156,226.4219 433.1094,225.8047 Q434.2031,225.1875 435.4375,225.1875 Q436.1719,225.1875 436.8203,225.3516 Q437.4688,225.5156 438.0156,225.875 Z "/><text fill="#000000" font-family="sans-serif" font-size="12" lengthAdjust="spacingAndGlyphs" textLength="87" x="455.75" y="234.9102">WorkerManager</text><line style="stroke: #A80036; stroke-width: 1.5;" x1="315.5" x2="650.5" y1="246" y2="246"/><rect fill="none" height="6" style="stroke: #C82930; stroke-width: 1.0;" width="6" x="322.5" y="255.418"/><text fill="#000000" font-family="sans-serif" font-size="11" lengthAdjust="spacingAndGlyphs" textLength="149" x="334.5" y="261.4189">variety: Directory&lt;Long, Type&gt;</text><rect fill="none" height="6" style="stroke: #C82930; stroke-width: 1.0;" width="6" x="322.5" y="269.2539"/><text fill="#000000" font-family="sans-serif" font-size="11" lengthAdjust="spacingAndGlyphs" textLength="98" x="334.5" y="275.2549">storage: String {File}</text><rect fill="none" height="6" style="stroke: #C82930; stroke-width: 1.0;" width="6" x="322.5" y="283.0898"/><text fill="#000000" font-family="sans-serif" font-size="11" lengthAdjust="spacingAndGlyphs" textLength="166" x="334.5" y="289.0908">workers: Directory&lt;Guid, Worker&gt;</text><line style="stroke: #A80036; stroke-width: 1.5;" x1="315.5" x2="650.5" y1="295.5078" y2="295.5078"/><ellipse cx="325.5" cy="307.9258" fill="#84BE84" rx="3" ry="3" style="stroke: #038048; stroke-width: 1.0;"/><text fill="#000000" font-family="sans-serif" font-size="11" lengthAdjust="spacingAndGlyphs" textLength="311" x="334.5" y="310.9268">WorkerManager(variety: Directory&lt;Long, Type&gt;, storage: String)</text><text fill="#000000" font-family="sans-serif" font-size="11" lengthAdjust="spacingAndGlyphs" textLength="0" x="337.5" y="324.7627"/><ellipse cx="325.5" cy="335.5977" fill="#84BE84" rx="3" ry="3" style="stroke: #038048; stroke-width: 1.0;"/><text fill="#000000" font-family="sans-serif" font-size="11" lengthAdjust="spacingAndGlyphs" textLength="95" x="334.5" y="338.5986">bool StartWorkers()</text><ellipse cx="325.5" cy="349.4336" fill="#84BE84" rx="3" ry="3" style="stroke: #038048; stroke-width: 1.0;"/><text fill="#000000" font-family="sans-serif" font-size="11" lengthAdjust="spacingAndGlyphs" textLength="99" x="334.5" y="352.4346">bool AbortWorkers()</text><ellipse cx="325.5" cy="363.2695" fill="#84BE84" rx="3" ry="3" style="stroke: #038048; stroke-width: 1.0;"/><text fill="#000000" font-family="sans-serif" font-size="11" lengthAdjust="spacingAndGlyphs" textLength="149" x="334.5" y="366.2705">Worker CreateWorker(id: Guid)</text><!--class Worker--><rect fill="#FEFECE" filter="url(#feka73f99b0vr)" height="131.0156" id="Worker" style="stroke: #A80036; stroke-width: 1.5;" width="269" x="224.5" y="451"/><ellipse cx="334.75" cy="467" fill="#A9DCDF" rx="11" ry="11" style="stroke: #A80036; stroke-width: 1.0;"/><path d="M336.9375,468.7656 L332.7969,468.7656 L332.375,469.7969 L332.7969,469.7969 Q333.4063,469.7969 333.6719,470.0313 Q333.9375,470.2656 333.9375,470.6563 Q333.9375,471.0313 333.6719,471.2656 Q333.4063,471.5 332.7969,471.5 L330.5,471.5 Q329.8906,471.5 329.6328,471.2656 Q329.375,471.0313 329.375,470.6406 Q329.375,470.2656 329.6484,470.0234 Q329.9219,469.7813 330.5469,469.7969 L333.2188,463.1406 L332.1094,463.1406 Q331.5,463.1406 331.2344,462.9063 Q330.9688,462.6719 330.9688,462.2813 Q330.9688,461.9063 331.2344,461.6719 Q331.5,461.4375 332.1094,461.4375 L335.7813,461.4375 L339.1719,469.7969 Q339.7656,469.7969 339.9531,469.9375 Q340.3438,470.2031 340.3438,470.6563 Q340.3438,471.0313 340.0859,471.2656 Q339.8281,471.5 339.2188,471.5 L336.9219,471.5 Q336.3125,471.5 336.0469,471.2656 Q335.7813,471.0313 335.7813,470.6406 Q335.7813,470.2656 336.0469,470.0313 Q336.3125,469.7969 336.9219,469.7969 L337.3438,469.7969 L336.9375,468.7656 Z M336.2188,467.0625 L334.8594,463.6875 L333.4844,467.0625 L336.2188,467.0625 Z "/><text fill="#000000" font-family="sans-serif" font-size="12" font-style="italic" lengthAdjust="spacingAndGlyphs" textLength="40" x="355.25" y="471.9102">Worker</text><line style="stroke: #A80036; stroke-width: 1.5;" x1="225.5" x2="492.5" y1="483" y2="483"/><polygon fill="none" points="235.5,490.418,239.5,494.418,235.5,498.418,231.5,494.418" style="stroke: #B38D22; stroke-width: 1.0;"/><text fill="#000000" font-family="sans-serif" font-size="11" lengthAdjust="spacingAndGlyphs" textLength="125" x="244.5" y="498.4189">manager: WorkerManager</text><rect fill="none" height="6" style="stroke: #C82930; stroke-width: 1.0;" width="6" x="232.5" y="506.2539"/><text fill="#000000" font-family="sans-serif" font-size="11" lengthAdjust="spacingAndGlyphs" textLength="69" x="244.5" y="512.2549">identifier: Guid</text><line style="stroke: #A80036; stroke-width: 1.5;" x1="225.5" x2="492.5" y1="518.6719" y2="518.6719"/><polygon fill="#FFFF44" points="235.5,526.0898,239.5,530.0898,235.5,534.0898,231.5,530.0898" style="stroke: #B38D22; stroke-width: 1.0;"/><text fill="#000000" font-family="sans-serif" font-size="11" lengthAdjust="spacingAndGlyphs" textLength="243" x="244.5" y="534.0908">Worker(identifier: Guid, manager: WorkerManager)</text><text fill="#000000" font-family="sans-serif" font-size="11" lengthAdjust="spacingAndGlyphs" textLength="0" x="247.5" y="547.9268"/><ellipse cx="235.5" cy="558.7617" fill="#84BE84" rx="3" ry="3" style="stroke: #038048; stroke-width: 1.0;"/><text fill="#000000" font-family="sans-serif" font-size="11" font-style="italic" lengthAdjust="spacingAndGlyphs" textLength="152" x="244.5" y="561.7627">bool Start(reader: TextReader)</text><ellipse cx="235.5" cy="572.5977" fill="#84BE84" rx="3" ry="3" style="stroke: #038048; stroke-width: 1.0;"/><text fill="#000000" font-family="sans-serif" font-size="11" font-style="italic" lengthAdjust="spacingAndGlyphs" textLength="146" x="244.5" y="575.5986">bool Abort(writer: TextWriter)</text><!--class BackupWorker--><rect fill="#FEFECE" filter="url(#feka73f99b0vr)" height="144.8516" id="BackupWorker" style="stroke: #A80036; stroke-width: 1.5;" width="447" x="59.5" y="643"/><ellipse cx="238.75" cy="659" fill="#ADD1B2" rx="11" ry="11" style="stroke: #A80036; stroke-width: 1.0;"/><path d="M241.5156,654.875 Q241.6719,654.6563 241.8594,654.5469 Q242.0469,654.4375 242.2656,654.4375 Q242.6406,654.4375 242.875,654.6953 Q243.1094,654.9531 243.1094,655.5625 L243.1094,657.0156 Q243.1094,657.625 242.875,657.8906 Q242.6406,658.1563 242.2656,658.1563 Q241.9219,658.1563 241.7188,657.9531 Q241.5156,657.7656 241.4063,657.25 Q241.3594,656.8906 241.1719,656.7031 Q240.8438,656.3281 240.2344,656.1094 Q239.625,655.8906 239,655.8906 Q238.2344,655.8906 237.6016,656.2188 Q236.9688,656.5469 236.4766,657.2969 Q235.9844,658.0469 235.9844,659.0781 L235.9844,660.1719 Q235.9844,661.4063 236.875,662.2266 Q237.7656,663.0469 239.3594,663.0469 Q240.2969,663.0469 240.9531,662.7969 Q241.3438,662.6406 241.7656,662.2031 Q242.0313,661.9375 242.1797,661.8594 Q242.3281,661.7813 242.5313,661.7813 Q242.8594,661.7813 243.1172,662.0391 Q243.375,662.2969 243.375,662.6406 Q243.375,662.9844 243.0313,663.3906 Q242.5313,663.9688 241.7344,664.2969 Q240.6563,664.75 239.3594,664.75 Q237.8438,664.75 236.6406,664.125 Q235.6563,663.625 234.9688,662.5547 Q234.2813,661.4844 234.2813,660.2031 L234.2813,659.0469 Q234.2813,657.7188 234.8984,656.5703 Q235.5156,655.4219 236.6094,654.8047 Q237.7031,654.1875 238.9375,654.1875 Q239.6719,654.1875 240.3203,654.3516 Q240.9688,654.5156 241.5156,654.875 Z "/><text fill="#000000" font-family="sans-serif" font-size="12" lengthAdjust="spacingAndGlyphs" textLength="80" x="259.25" y="663.9102">BackupWorker</text><line style="stroke: #A80036; stroke-width: 1.5;" x1="60.5" x2="505.5" y1="675" y2="675"/><rect fill="none" height="6" style="stroke: #C82930; stroke-width: 1.0;" width="6" x="67.5" y="684.418"/><text fill="#000000" font-family="sans-serif" font-size="11" lengthAdjust="spacingAndGlyphs" textLength="145" x="79.5" y="690.4189">source: String {File, Directory}</text><rect fill="none" height="6" style="stroke: #C82930; stroke-width: 1.0;" width="6" x="67.5" y="698.2539"/><text fill="#000000" font-family="sans-serif" font-size="11" lengthAdjust="spacingAndGlyphs" textLength="139" x="79.5" y="704.2549">target: String {File, Directory}</text><rect fill="none" height="6" style="stroke: #C82930; stroke-width: 1.0;" width="6" x="67.5" y="712.0898"/><text fill="#000000" font-family="sans-serif" font-size="11" lengthAdjust="spacingAndGlyphs" textLength="112" x="79.5" y="718.0908">observer: FileObserver</text><line style="stroke: #A80036; stroke-width: 1.5;" x1="60.5" x2="505.5" y1="724.5078" y2="724.5078"/><ellipse cx="70.5" cy="736.9258" fill="#84BE84" rx="3" ry="3" style="stroke: #038048; stroke-width: 1.0;"/><text fill="#000000" font-family="sans-serif" font-size="11" lengthAdjust="spacingAndGlyphs" textLength="421" x="79.5" y="739.9268">BackupWorker(identifier: Guid, manager: WorkerManager, source: String, target: String)</text><text fill="#000000" font-family="sans-serif" font-size="11" lengthAdjust="spacingAndGlyphs" textLength="0" x="82.5" y="753.7627"/><ellipse cx="70.5" cy="764.5977" fill="#84BE84" rx="3" ry="3" style="stroke: #038048; stroke-width: 1.0;"/><text fill="#000000" font-family="sans-serif" font-size="11" lengthAdjust="spacingAndGlyphs" textLength="145" x="79.5" y="767.5986">bool Start(TextReader reader)</text><ellipse cx="70.5" cy="778.4336" fill="#84BE84" rx="3" ry="3" style="stroke: #038048; stroke-width: 1.0;"/><text fill="#000000" font-family="sans-serif" font-size="11" lengthAdjust="spacingAndGlyphs" textLength="140" x="79.5" y="781.4346">bool Abort(TextWriter writer)</text><!--class FileObserver--><rect fill="#FEFECE" filter="url(#feka73f99b0vr)" height="89.5078" id="FileObserver" style="stroke: #A80036; stroke-width: 1.5;" width="235" x="165.5" y="866"/><ellipse cx="243.75" cy="882" fill="#ADD1B2" rx="11" ry="11" style="stroke: #A80036; stroke-width: 1.0;"/><path d="M246.5156,877.875 Q246.6719,877.6563 246.8594,877.5469 Q247.0469,877.4375 247.2656,877.4375 Q247.6406,877.4375 247.875,877.6953 Q248.1094,877.9531 248.1094,878.5625 L248.1094,880.0156 Q248.1094,880.625 247.875,880.8906 Q247.6406,881.1563 247.2656,881.1563 Q246.9219,881.1563 246.7188,880.9531 Q246.5156,880.7656 246.4063,880.25 Q246.3594,879.8906 246.1719,879.7031 Q245.8438,879.3281 245.2344,879.1094 Q244.625,878.8906 244,878.8906 Q243.2344,878.8906 242.6016,879.2188 Q241.9688,879.5469 241.4766,880.2969 Q240.9844,881.0469 240.9844,882.0781 L240.9844,883.1719 Q240.9844,884.4063 241.875,885.2266 Q242.7656,886.0469 244.3594,886.0469 Q245.2969,886.0469 245.9531,885.7969 Q246.3438,885.6406 246.7656,885.2031 Q247.0313,884.9375 247.1797,884.8594 Q247.3281,884.7813 247.5313,884.7813 Q247.8594,884.7813 248.1172,885.0391 Q248.375,885.2969 248.375,885.6406 Q248.375,885.9844 248.0313,886.3906 Q247.5313,886.9688 246.7344,887.2969 Q245.6563,887.75 244.3594,887.75 Q242.8438,887.75 241.6406,887.125 Q240.6563,886.625 239.9688,885.5547 Q239.2813,884.4844 239.2813,883.2031 L239.2813,882.0469 Q239.2813,880.7188 239.8984,879.5703 Q240.5156,878.4219 241.6094,877.8047 Q242.7031,877.1875 243.9375,877.1875 Q244.6719,877.1875 245.3203,877.3516 Q245.9688,877.5156 246.5156,877.875 Z "/><text fill="#000000" font-family="sans-serif" font-size="12" lengthAdjust="spacingAndGlyphs" textLength="70" x="264.25" y="886.9102">FileObserver</text><line style="stroke: #A80036; stroke-width: 1.5;" x1="166.5" x2="399.5" y1="898" y2="898"/><ellipse cx="176.5" cy="910.418" fill="none" rx="3" ry="3" style="stroke: #038048; stroke-width: 1.0;"/><text fill="#000000" font-family="sans-serif" font-size="11" lengthAdjust="spacingAndGlyphs" textLength="136" x="185.5" y="913.4189">«get» Changes: List&lt;String&gt;</text><rect fill="none" height="6" style="stroke: #C82930; stroke-width: 1.0;" width="6" x="173.5" y="921.2539"/><text fill="#000000" font-family="sans-serif" font-size="11" lengthAdjust="spacingAndGlyphs" textLength="139" x="185.5" y="927.2549">target: String {File, Directory}</text><line style="stroke: #A80036; stroke-width: 1.5;" x1="166.5" x2="399.5" y1="933.6719" y2="933.6719"/><ellipse cx="176.5" cy="946.0898" fill="#84BE84" rx="3" ry="3" style="stroke: #038048; stroke-width: 1.0;"/><text fill="#000000" font-family="sans-serif" font-size="11" lengthAdjust="spacingAndGlyphs" textLength="209" x="185.5" y="949.0908">FileObserver(String {File, Directory}: String)</text><!--class UserInterface--><rect fill="#FEFECE" filter="url(#feka73f99b0vr)" height="48" id="UserInterface" style="stroke: #A80036; stroke-width: 1.5;" width="106" x="524" y="1041"/><ellipse cx="539" cy="1057" fill="#ADD1B2" rx="11" ry="11" style="stroke: #A80036; stroke-width: 1.0;"/><path d="M541.7656,1052.875 Q541.9219,1052.6563 542.1094,1052.5469 Q542.2969,1052.4375 542.5156,1052.4375 Q542.8906,1052.4375 543.125,1052.6953 Q543.3594,1052.9531 543.3594,1053.5625 L543.3594,1055.0156 Q543.3594,1055.625 543.125,1055.8906 Q542.8906,1056.1563 542.5156,1056.1563 Q542.1719,1056.1563 541.9688,1055.9531 Q541.7656,1055.7656 541.6563,1055.25 Q541.6094,1054.8906 541.4219,1054.7031 Q541.0938,1054.3281 540.4844,1054.1094 Q539.875,1053.8906 539.25,1053.8906 Q538.4844,1053.8906 537.8516,1054.2188 Q537.2188,1054.5469 536.7266,1055.2969 Q536.2344,1056.0469 536.2344,1057.0781 L536.2344,1058.1719 Q536.2344,1059.4063 537.125,1060.2266 Q538.0156,1061.0469 539.6094,1061.0469 Q540.5469,1061.0469 541.2031,1060.7969 Q541.5938,1060.6406 542.0156,1060.2031 Q542.2813,1059.9375 542.4297,1059.8594 Q542.5781,1059.7813 542.7813,1059.7813 Q543.1094,1059.7813 543.3672,1060.0391 Q543.625,1060.2969 543.625,1060.6406 Q543.625,1060.9844 543.2813,1061.3906 Q542.7813,1061.9688 541.9844,1062.2969 Q540.9063,1062.75 539.6094,1062.75 Q538.0938,1062.75 536.8906,1062.125 Q535.9063,1061.625 535.2188,1060.5547 Q534.5313,1059.4844 534.5313,1058.2031 L534.5313,1057.0469 Q534.5313,1055.7188 535.1484,1054.5703 Q535.7656,1053.4219 536.8594,1052.8047 Q537.9531,1052.1875 539.1875,1052.1875 Q539.9219,1052.1875 540.5703,1052.3516 Q541.2188,1052.5156 541.7656,1052.875 Z "/><text fill="#000000" font-family="sans-serif" font-size="12" lengthAdjust="spacingAndGlyphs" textLength="74" x="553" y="1061.9102">UserInterface</text><line style="stroke: #A80036; stroke-width: 1.5;" x1="525" x2="629" y1="1073" y2="1073"/><line style="stroke: #A80036; stroke-width: 1.5;" x1="525" x2="629" y1="1081" y2="1081"/><!--link Worker to BackupWorker--><path d="M326.909,600.684 C321.519,614.653 315.968,629.044 310.701,642.695 " fill="none" id="Worker-BackupWorker" style="stroke: #A80036; stroke-width: 1.0;"/><polygon fill="none" points="320.385,598.145,334.115,582.005,333.447,603.184,320.385,598.145" style="stroke: #A80036; stroke-width: 1.0;"/><!--link Entrypoint to WorkerTypeRegister--><path d="M241.402,136.318 C233.12,145.578 224.801,155.787 218,166 C198.524,195.247 182.183,231.946 171.673,258.272 " fill="none" id="Entrypoint-WorkerTypeRegister" style="stroke: #A80036; stroke-width: 1.0;"/><text fill="#000000" font-family="sans-serif" font-size="13" lengthAdjust="spacingAndGlyphs" textLength="143" x="219" y="180.4951">registers worker varieties</text><polygon fill="#000000" points="286,189.3516,289,195.3516,292,189.3516,286,189.3516" style="stroke: #000000; stroke-width: 1.0;"/><text fill="#000000" font-family="sans-serif" font-size="13" lengthAdjust="spacingAndGlyphs" textLength="7" x="227.852" y="157.2492">1</text><text fill="#000000" font-family="sans-serif" font-size="13" lengthAdjust="spacingAndGlyphs" textLength="7" x="166.4216" y="247.5581">1</text><!--link Entrypoint to WorkerManager--><path d="M341.276,136.038 C354.62,145.123 368.232,155.328 380,166 C395.84,180.364 411.295,197.258 425.215,213.941 " fill="none" id="Entrypoint-WorkerManager" style="stroke: #A80036; stroke-width: 1.0;"/><text fill="#000000" font-family="sans-serif" font-size="13" lengthAdjust="spacingAndGlyphs" textLength="197" x="396" y="180.4951">starts with varieties and data input</text><polygon fill="#000000" points="596,173.6758,602,176.6758,596,179.6758,596,173.6758" style="stroke: #000000; stroke-width: 1.0;"/><text fill="#000000" font-family="sans-serif" font-size="13" lengthAdjust="spacingAndGlyphs" textLength="7" x="344.0108" y="157.2144">1</text><text fill="#000000" font-family="sans-serif" font-size="13" lengthAdjust="spacingAndGlyphs" textLength="7" x="412.3738" y="203.1223">1</text><!--link WorkerManager to Worker--><path d="M438.933,373.039 C424.663,398.472 409.005,426.377 395.36,450.698 " fill="none" id="WorkerManager-Worker" style="stroke: #A80036; stroke-width: 1.0;"/><text fill="#000000" font-family="sans-serif" font-size="13" lengthAdjust="spacingAndGlyphs" textLength="53" x="422" y="417.4951">manages</text><polygon fill="#000000" points="444,426.3516,447,432.3516,450,426.3516,444,426.3516" style="stroke: #000000; stroke-width: 1.0;"/><text fill="#000000" font-family="sans-serif" font-size="13" lengthAdjust="spacingAndGlyphs" textLength="7" x="427.8452" y="394.0855">1</text><text fill="#000000" font-family="sans-serif" font-size="13" lengthAdjust="spacingAndGlyphs" textLength="7" x="391.9541" y="440.1394">n</text><!--link BackupWorker to FileObserver--><path d="M283,788.002 C283,814.056 283,842.735 283,865.738 " fill="none" id="BackupWorker-FileObserver" style="stroke: #A80036; stroke-width: 1.0;"/><text fill="#000000" font-family="sans-serif" font-size="13" lengthAdjust="spacingAndGlyphs" textLength="109" x="284" y="832.4951">keeps track of files</text><polygon fill="#000000" points="334,841.3516,337,847.3516,340,841.3516,334,841.3516" style="stroke: #000000; stroke-width: 1.0;"/><text fill="#000000" font-family="sans-serif" font-size="13" lengthAdjust="spacingAndGlyphs" textLength="7" x="275.6555" y="809.4461">1</text><text fill="#000000" font-family="sans-serif" font-size="13" lengthAdjust="spacingAndGlyphs" textLength="7" x="275.4641" y="855.142">1</text><!--link WorkerManager to UserInterface--><path d="M534.538,373.239 C556.432,413.995 577,465.571 577,515.5 C577,515.5 577,515.5 577,912 C577,957.653 577,1011.018 577,1040.8237 " fill="none" id="WorkerManager-UserInterface" style="stroke: #A80036; stroke-width: 1.0;"/><text fill="#000000" font-family="sans-serif" font-size="13" lengthAdjust="spacingAndGlyphs" textLength="43" x="578" y="720.9951">storage</text><path d="M569.9289,572.1336 A10,10 0 0 0 584.0711 572.1336" fill="#FFFFFF" style="stroke: #A80036; stroke-width: 1.5;"/><ellipse cx="577" cy="565.0625" fill="#FFFFFF" rx="6" ry="6" style="stroke: #A80036; stroke-width: 1.5;"/><!--
@startuml Classes
top to bottom direction


package app.common {
    class Entrypoint {
        {static} -manager: WorkerManager
        {static} +void Main(args: string[])
    }

    class WorkerTypeRegister <<static>> {
        +int Register(register: Directory<Long, Type>)
    }

    class WorkerManager {
        -variety: Directory<Long, Type>
        -storage: String {File}
        -workers: Directory<Guid, Worker>

        +WorkerManager(variety: Directory<Long, Type>, storage: String)

        +bool StartWorkers()
        +bool AbortWorkers()
        +Worker CreateWorker(id: Guid)
    }

    abstract class Worker {
        #manager: WorkerManager
        -identifier: Guid

        #Worker(identifier: Guid, manager: WorkerManager)

        {abstract} +bool Start(reader: TextReader)
        {abstract} +bool Abort(writer: TextWriter)
    }

    class BackupWorker extends Worker {
        -source: String {File, Directory}
        -target: String {File, Directory}
        -observer: FileObserver

        +BackupWorker(identifier: Guid, manager: WorkerManager, source: String, target: String)

        +bool Start(TextReader reader)
        +bool Abort(TextWriter writer)
    }

    class FileObserver {
        +<<get>> Changes: List<String>
        -target: String {File, Directory}

        +FileObserver(String {File, Directory}: String)
    }
}

package app.window {
    class UserInterface {
    }
}

Entrypoint "1" - - "1" WorkerTypeRegister :  registers worker varieties >
Entrypoint "1" - - "1" WorkerManager : starts with varieties and data input >
WorkerManager "1" - - "n" Worker : manages >
BackupWorker "1" - - "1" FileObserver : keeps track of files >

WorkerManager - - -0)- - UserInterface : storage

@enduml

PlantUML version 1.2019.03(Sun Mar 10 12:04:44 CET 2019)
(GPL source distribution)
Java Runtime: OpenJDK Runtime Environment
JVM: OpenJDK 64-Bit Server VM
Java Version: 1.8.0_212-b03
Operating System: Windows 10
OS Version: 10.0
Default Encoding: Cp1252
Language: de
Country: DE
--></g></svg>