<?xml version="1.0" encoding="UTF-8" standalone="no"?><svg xmlns="http://www.w3.org/2000/svg" xmlns:xlink="http://www.w3.org/1999/xlink" contentScriptType="application/ecmascript" contentStyleType="text/css" height="624px" preserveAspectRatio="none" style="width:335px;height:624px;" version="1.1" viewBox="0 0 335 624" width="335px" zoomAndPan="magnify"><defs><filter height="300%" id="fetzvjtha3px2" width="300%" x="-1" y="-1"><feGaussianBlur result="blurOut" stdDeviation="2.0"/><feColorMatrix in="blurOut" result="blurOut2" type="matrix" values="0 0 0 0 0 0 0 0 0 0 0 0 0 0 0 0 0 0 .4 0"/><feOffset dx="4.0" dy="4.0" in="blurOut2" result="blurOut3"/><feBlend in="SourceGraphic" in2="blurOut3" mode="normal"/></filter></defs><g><!--cluster UserInterface--><rect fill="#FFFFFF" filter="url(#fetzvjtha3px2)" height="324" style="stroke: #000000; stroke-width: 1.5;" width="228" x="96.5" y="24"/><text fill="#000000" font-family="sans-serif" font-size="14" font-weight="bold" lengthAdjust="spacingAndGlyphs" textLength="96" x="162.5" y="40.5332">UserInterface</text><!--cluster Configuration--><rect fill="#FFFFFF" filter="url(#fetzvjtha3px2)" height="108" style="stroke: #000000; stroke-width: 1.5;" width="152" x="134.5" y="68"/><text fill="#000000" font-family="sans-serif" font-size="14" font-weight="bold" lengthAdjust="spacingAndGlyphs" textLength="96" x="162.5" y="84.5332">Configuration</text><!--cluster Application--><rect fill="#FFFFFF" filter="url(#fetzvjtha3px2)" height="195" style="stroke: #000000; stroke-width: 1.5;" width="131" x="145" y="372"/><text fill="#000000" font-family="sans-serif" font-size="14" font-weight="bold" lengthAdjust="spacingAndGlyphs" textLength="78" x="171.5" y="388.5332">Application</text><ellipse cx="210.4059" cy="219.9327" fill="#FEFECE" filter="url(#fetzvjtha3px2)" rx="97.9059" ry="25.4327" style="stroke: #A80036; stroke-width: 1.5;"/><text fill="#000000" font-family="sans-serif" font-size="14" lengthAdjust="spacingAndGlyphs" textLength="59" x="180.9059" y="212.7206">1.1 Open</text><text fill="#000000" font-family="sans-serif" font-size="14" lengthAdjust="spacingAndGlyphs" textLength="149" x="135.9059" y="230.33">graphical user interface</text><ellipse cx="210.7008" cy="305.766" fill="#FEFECE" filter="url(#fetzvjtha3px2)" rx="97.2008" ry="25.266" style="stroke: #A80036; stroke-width: 1.5;"/><text fill="#000000" font-family="sans-serif" font-size="14" lengthAdjust="spacingAndGlyphs" textLength="46" x="187.7008" y="298.2833">1.3 Exit</text><text fill="#000000" font-family="sans-serif" font-size="14" lengthAdjust="spacingAndGlyphs" textLength="149" x="136.2008" y="315.8926">graphical user interface</text><ellipse cx="210.3105" cy="131.8999" fill="#FEFECE" filter="url(#fetzvjtha3px2)" rx="59.8105" ry="27.3999" style="stroke: #A80036; stroke-width: 1.5;"/><text fill="#000000" font-family="sans-serif" font-size="14" lengthAdjust="spacingAndGlyphs" textLength="75" x="172.8105" y="127.6804">1.2 Manage</text><text fill="#000000" font-family="sans-serif" font-size="14" lengthAdjust="spacingAndGlyphs" textLength="82" x="169.3105" y="145.2898">configuration</text><ellipse cx="210.4169" cy="434.7814" fill="#FEFECE" filter="url(#fetzvjtha3px2)" rx="48.9169" ry="26.7814" style="stroke: #A80036; stroke-width: 1.5;"/><text fill="#000000" font-family="sans-serif" font-size="14" lengthAdjust="spacingAndGlyphs" textLength="54" x="183.4169" y="429.6553">2.1 Start</text><text fill="#000000" font-family="sans-serif" font-size="14" lengthAdjust="spacingAndGlyphs" textLength="68" x="176.4169" y="447.2646">application</text><ellipse cx="210.4743" cy="524.0701" fill="#FEFECE" filter="url(#fetzvjtha3px2)" rx="49.4743" ry="27.0701" style="stroke: #A80036; stroke-width: 1.5;"/><text fill="#000000" font-family="sans-serif" font-size="14" lengthAdjust="spacingAndGlyphs" textLength="58" x="181.4743" y="519.3705">2.2 Abort</text><text fill="#000000" font-family="sans-serif" font-size="14" lengthAdjust="spacingAndGlyphs" textLength="68" x="176.4743" y="536.9799">application</text><!--entity user--><ellipse cx="29" cy="273.5" fill="#FEFECE" filter="url(#fetzvjtha3px2)" rx="8" ry="8" style="stroke: #A80036; stroke-width: 2.0;"/><path d="M29,281.5 L29,308.5 M16,289.5 L42,289.5 M29,308.5 L16,323.5 M29,308.5 L42,323.5 " fill="none" filter="url(#fetzvjtha3px2)" style="stroke: #A80036; stroke-width: 2.0;"/><text fill="#000000" font-family="sans-serif" font-size="14" lengthAdjust="spacingAndGlyphs" textLength="29" x="14.5" y="345.0332">User</text><!--entity system--><ellipse cx="29" cy="491.5" fill="#FEFECE" filter="url(#fetzvjtha3px2)" rx="8" ry="8" style="stroke: #A80036; stroke-width: 2.0;"/><path d="M29,499.5 L29,526.5 M16,507.5 L42,507.5 M29,526.5 L16,541.5 M29,526.5 L42,541.5 " fill="none" filter="url(#fetzvjtha3px2)" style="stroke: #A80036; stroke-width: 2.0;"/><text fill="#000000" font-family="sans-serif" font-size="14" lengthAdjust="spacingAndGlyphs" textLength="46" x="6" y="563.0332">System</text><path d="M112,586 L112,612.3516 L309,612.3516 L309,596 L299,586 L112,586 " fill="#FBFB77" filter="url(#fetzvjtha3px2)" style="stroke: #A80036; stroke-width: 1.0;"/><path d="M299,586 L299,596 L309,596 L299,586 " fill="#FBFB77" style="stroke: #A80036; stroke-width: 1.0;"/><text fill="#000000" font-family="sans-serif" font-size="13" lengthAdjust="spacingAndGlyphs" textLength="176" x="118" y="604.4951">might be the operating system</text><!--link system to GMN4--><path d="M52.0648,543.2895 C62.5189,551.5937 75.5375,560.799 88.5,567 C105.2595,575.0174 124.321,581.2488 142.278,585.993 " fill="none" id="system-GMN4" style="stroke: #A80036; stroke-width: 1.0; stroke-dasharray: 7.0,7.0;"/><!--link user to open--><path d="M44.1157,293.781 C55.501,284.396 72.2422,271.623 88.5,263 C104.6124,254.454 122.784,246.979 140.052,240.763 " fill="none" id="user-open" style="stroke: #A80036; stroke-width: 1.0;"/><polygon fill="#A80036" points="144.897,239.043,135.0774,238.2849,140.1852,240.716,137.7541,245.8238,144.897,239.043" style="stroke: #A80036; stroke-width: 1.0;"/><!--link user to exit--><path d="M44.0851,306 C58.6517,306 82.7912,306 108.187,306 " fill="none" id="user-exit" style="stroke: #A80036; stroke-width: 1.0;"/><polygon fill="#A80036" points="113.28,306,104.28,302,108.28,306,104.28,310,113.28,306" style="stroke: #A80036; stroke-width: 1.0;"/><!--link user to manage--><path d="M36.8404,263.401 C44.1981,231.325 59.0721,188.636 88.5,163 C104.4028,149.146 125.687,141.345 145.968,136.996 " fill="none" id="user-manage" style="stroke: #A80036; stroke-width: 1.0;"/><polygon fill="#A80036" points="151.098,135.964,141.4854,133.8196,146.1964,136.9512,143.0649,141.6622,151.098,135.964" style="stroke: #A80036; stroke-width: 1.0;"/><!--link user to start--><path d="M44.0851,316.122 C72.2339,336.352 136.131,382.272 175.759,410.752 " fill="none" id="user-start" style="stroke: #A80036; stroke-width: 1.0;"/><polygon fill="#A80036" points="179.991,413.793,175.016,405.293,175.9305,410.8755,170.348,411.7899,179.991,413.793" style="stroke: #A80036; stroke-width: 1.0;"/><!--link user to abort--><path d="M34.0937,348.695 C39.9571,387.391 54.1646,443.62 88.5,479 C106.861,497.92 133.897,508.954 157.758,515.354 " fill="none" id="user-abort" style="stroke: #A80036; stroke-width: 1.0;"/><polygon fill="#A80036" points="162.797,516.6506,155.0774,510.5344,157.9547,515.4049,153.0842,518.2822,162.797,516.6506" style="stroke: #A80036; stroke-width: 1.0;"/><!--link system to start--><path d="M52.2116,504.314 C62.6954,495.724 75.6965,486.032 88.5,479 C111.456,466.393 138.745,456.109 161.592,448.663 " fill="none" id="system-start" style="stroke: #A80036; stroke-width: 1.0;"/><polygon fill="#A80036" points="166.396,447.117,156.6034,446.0656,161.6363,448.6483,159.0536,453.6812,166.396,447.117" style="stroke: #A80036; stroke-width: 1.0;"/><!--link system to abort--><path d="M52.0102,524 C77.708,524 121.12,524 155.864,524 " fill="none" id="system-abort" style="stroke: #A80036; stroke-width: 1.0;"/><polygon fill="#A80036" points="160.925,524,151.925,520,155.925,524,151.925,528,160.925,524" style="stroke: #A80036; stroke-width: 1.0;"/><!--
@startuml Usecases
left to right direction


actor user as "User"
actor system as "System"

note right of system : might be the operating system

rectangle UserInterface {
    usecase open as "
        1.1 Open
        graphical user interface
    "
    usecase exit as "
        1.3 Exit
        graphical user interface
    "
    user - -> open
    user - -> exit
    
    rectangle Configuration {
        usecase manage as "
            1.2 Manage
            configuration
        "
    }
    user - -> manage
}

rectangle Application {
    usecase start as "
        2.1 Start
        application
    "
    usecase abort as "
        2.2 Abort
        application
    "
}

user - -> start
user - -> abort

system - -> start
system - -> abort

@enduml

PlantUML version 1.2019.03(Sun Mar 10 12:04:44 CET 2019)
(GPL source distribution)
Java Runtime: OpenJDK Runtime Environment
JVM: OpenJDK 64-Bit Server VM
Java Version: 1.8.0_212-b03
Operating System: Windows 10
OS Version: 10.0
Default Encoding: Cp1252
Language: de
Country: DE
--></g></svg>