<?xml version="1.0" encoding="UTF-8" standalone="no"?><svg xmlns="http://www.w3.org/2000/svg" xmlns:xlink="http://www.w3.org/1999/xlink" contentScriptType="application/ecmascript" contentStyleType="text/css" height="687px" preserveAspectRatio="none" style="width:510px;height:687px;" version="1.1" viewBox="0 0 510 687" width="510px" zoomAndPan="magnify"><defs><filter height="300%" id="f3zf6zq52nrpr" width="300%" x="-1" y="-1"><feGaussianBlur result="blurOut" stdDeviation="2.0"/><feColorMatrix in="blurOut" result="blurOut2" type="matrix" values="0 0 0 0 0 0 0 0 0 0 0 0 0 0 0 0 0 0 .4 0"/><feOffset dx="4.0" dy="4.0" in="blurOut2" result="blurOut3"/><feBlend in="SourceGraphic" in2="blurOut3" mode="normal"/></filter></defs><g><rect fill="#FEFECE" filter="url(#f3zf6zq52nrpr)" height="52.7031" rx="12.5" ry="12.5" style="stroke: #A80036; stroke-width: 1.5;" width="130" x="71.5" y="64"/><line style="stroke: #A80036; stroke-width: 1.5;" x1="71.5" x2="201.5" y1="91.6094" y2="91.6094"/><text fill="#000000" font-family="sans-serif" font-size="14" lengthAdjust="spacingAndGlyphs" textLength="80" x="96.5" y="83.5332">Conifg exists</text><text fill="#000000" font-family="sans-serif" font-size="12" lengthAdjust="spacingAndGlyphs" textLength="110" x="76.5" y="109.0664">do\ File.Exist(config)</text><rect fill="#FEFECE" filter="url(#f3zf6zq52nrpr)" height="52.7031" rx="12.5" ry="12.5" style="stroke: #A80036; stroke-width: 1.5;" width="124" x="74.5" y="170"/><line style="stroke: #A80036; stroke-width: 1.5;" x1="74.5" x2="198.5" y1="197.6094" y2="197.6094"/><text fill="#000000" font-family="sans-serif" font-size="14" lengthAdjust="spacingAndGlyphs" textLength="72" x="100.5" y="189.5332">Config load</text><text fill="#000000" font-family="sans-serif" font-size="12" lengthAdjust="spacingAndGlyphs" textLength="104" x="79.5" y="215.0664">entry\ LoadConfig()</text><rect fill="#FEFECE" filter="url(#f3zf6zq52nrpr)" height="52.7031" rx="12.5" ry="12.5" style="stroke: #A80036; stroke-width: 1.5;" width="211" x="31" y="276"/><line style="stroke: #A80036; stroke-width: 1.5;" x1="31" x2="242" y1="303.6094" y2="303.6094"/><text fill="#000000" font-family="sans-serif" font-size="14" lengthAdjust="spacingAndGlyphs" textLength="101" x="86" y="295.5332">Workers started</text><text fill="#000000" font-family="sans-serif" font-size="12" lengthAdjust="spacingAndGlyphs" textLength="191" x="36" y="321.0664">entry\ foreach worker: StartWorker()</text><rect fill="#FEFECE" filter="url(#f3zf6zq52nrpr)" height="67.7969" rx="12.5" ry="12.5" style="stroke: #A80036; stroke-width: 1.5;" width="223" x="25" y="381.5"/><line style="stroke: #A80036; stroke-width: 1.5;" x1="25" x2="248" y1="409.1094" y2="409.1094"/><text fill="#000000" font-family="sans-serif" font-size="14" lengthAdjust="spacingAndGlyphs" textLength="106" x="83.5" y="401.0332">Program running</text><text fill="#000000" font-family="sans-serif" font-size="12" lengthAdjust="spacingAndGlyphs" textLength="131" x="30" y="426.5664">do\ wait for Program exit</text><text fill="#000000" font-family="sans-serif" font-size="12" lengthAdjust="spacingAndGlyphs" textLength="203" x="30" y="441.6602">exit\ Escapecharacter read from input</text><rect fill="#FEFECE" filter="url(#f3zf6zq52nrpr)" height="52.7031" rx="12.5" ry="12.5" style="stroke: #A80036; stroke-width: 1.5;" width="214" x="29.5" y="518"/><line style="stroke: #A80036; stroke-width: 1.5;" x1="29.5" x2="243.5" y1="545.6094" y2="545.6094"/><text fill="#000000" font-family="sans-serif" font-size="14" lengthAdjust="spacingAndGlyphs" textLength="84" x="94.5" y="537.5332">Workers stop</text><text fill="#000000" font-family="sans-serif" font-size="12" lengthAdjust="spacingAndGlyphs" textLength="194" x="34.5" y="563.0664">entry\ foreach worker: AbortWorker()</text><rect fill="#FEFECE" filter="url(#f3zf6zq52nrpr)" height="52.7031" rx="12.5" ry="12.5" style="stroke: #A80036; stroke-width: 1.5;" width="111" x="81" y="624"/><line style="stroke: #A80036; stroke-width: 1.5;" x1="81" x2="192" y1="651.6094" y2="651.6094"/><text fill="#000000" font-family="sans-serif" font-size="14" lengthAdjust="spacingAndGlyphs" textLength="75" x="99" y="643.5332">Config save</text><text fill="#000000" font-family="sans-serif" font-size="12" lengthAdjust="spacingAndGlyphs" textLength="91" x="86" y="669.0664">do\ SaveConfig()</text><ellipse cx="136.5" cy="18.5" fill="#000000" filter="url(#f3zf6zq52nrpr)" rx="10" ry="10" style="stroke: none; stroke-width: 1.0;"/><ellipse cx="489" cy="308.5" fill="none" filter="url(#f3zf6zq52nrpr)" rx="10" ry="10" style="stroke: #000000; stroke-width: 1.0;"/><ellipse cx="489.5" cy="309" fill="#000000" rx="6" ry="6" style="stroke: none; stroke-width: 1.0;"/><!--link *start to config--><path d="M136.5,28.759 C136.5,38.7 136.5,48.641 136.5,58.583 " fill="none" id="*start-config" style="stroke: #A80036; stroke-width: 1.0;"/><polygon fill="#A80036" points="136.5,63.781,140.5,54.781,136.5,58.781,132.5,54.781,136.5,63.781" style="stroke: #A80036; stroke-width: 1.0;"/><!--link config to *end--><path d="M186.577,117.139 C205.883,127.851 228.141,140.492 248,152.5 C337.129,206.394 441.185,276.605 475.984,300.292 " fill="none" id="config-*end" style="stroke: #A80036; stroke-width: 1.0;"/><polygon fill="#A80036" points="480.245,303.195,475.0607,294.8211,476.1133,300.3791,470.5553,301.4317,480.245,303.195" style="stroke: #A80036; stroke-width: 1.0;"/><text fill="#000000" font-family="sans-serif" font-size="13" lengthAdjust="spacingAndGlyphs" textLength="139" x="294" y="169.9951">[config file doesn't exist]</text><!--link config to load--><path d="M136.5,117.24 C136.5,131.675 136.5,149.589 136.5,164.732 " fill="none" id="config-load" style="stroke: #A80036; stroke-width: 1.0;"/><polygon fill="#A80036" points="136.5,169.752,140.5,160.752,136.5,164.752,132.5,160.752,136.5,169.752" style="stroke: #A80036; stroke-width: 1.0;"/><text fill="#000000" font-family="sans-serif" font-size="13" lengthAdjust="spacingAndGlyphs" textLength="94" x="77.5" y="148.9951">[config file exist]</text><!--link load to start--><path d="M136.5,223.24 C136.5,237.675 136.5,255.589 136.5,270.732 " fill="none" id="load-start" style="stroke: #A80036; stroke-width: 1.0;"/><polygon fill="#A80036" points="136.5,275.752,140.5,266.752,136.5,270.752,132.5,266.752,136.5,275.752" style="stroke: #A80036; stroke-width: 1.0;"/><text fill="#000000" font-family="sans-serif" font-size="13" lengthAdjust="spacingAndGlyphs" textLength="174" x="37.5" y="254.9951">Configuration has been loaded</text><!--link start to run--><path d="M136.5,329.059 C136.5,343.071 136.5,360.537 136.5,376.095 " fill="none" id="start-run" style="stroke: #A80036; stroke-width: 1.0;"/><polygon fill="#A80036" points="136.5,381.29,140.5,372.29,136.5,376.29,132.5,372.29,136.5,381.29" style="stroke: #A80036; stroke-width: 1.0;"/><text fill="#000000" font-family="sans-serif" font-size="13" lengthAdjust="spacingAndGlyphs" textLength="170" x="39.5" y="360.7451">All workers have been started</text><!--link run to stop--><path d="M136.5,449.567 C136.5,469.066 136.5,493.379 136.5,512.518 " fill="none" id="run-stop" style="stroke: #A80036; stroke-width: 1.0;"/><polygon fill="#A80036" points="136.5,517.771,140.5,508.771,136.5,512.771,132.5,508.771,136.5,517.771" style="stroke: #A80036; stroke-width: 1.0;"/><text fill="#000000" font-family="sans-serif" font-size="13" lengthAdjust="spacingAndGlyphs" textLength="108" x="60.5" y="481.2451">Workers shutdown</text><text fill="#000000" font-family="sans-serif" font-size="13" lengthAdjust="spacingAndGlyphs" textLength="215" x="11" y="497.5967">[escape character has been pressed]</text><!--link stop to save--><path d="M136.5,571.24 C136.5,585.6752 136.5,603.5885 136.5,618.7315 " fill="none" id="stop-save" style="stroke: #A80036; stroke-width: 1.0;"/><polygon fill="#A80036" points="136.5,623.7517,140.5,614.7517,136.5,618.7517,132.5,614.7517,136.5,623.7517" style="stroke: #A80036; stroke-width: 1.0;"/><text fill="#000000" font-family="sans-serif" font-size="13" lengthAdjust="spacingAndGlyphs" textLength="176" x="36.5" y="602.9951">All workers have been stopped</text><!--link save to *end--><path d="M192.203,624.7246 C210.818,614.7078 231.159,602.3074 248,588.5 C354.528,501.16 451.522,362.844 479.758,320.936 " fill="none" id="save-*end" style="stroke: #A80036; stroke-width: 1.0;"/><polygon fill="#A80036" points="482.568,316.746,474.2337,321.9939,479.7836,320.899,480.8785,326.4489,482.568,316.746" style="stroke: #A80036; stroke-width: 1.0;"/><text fill="#000000" font-family="sans-serif" font-size="13" lengthAdjust="spacingAndGlyphs" textLength="169" x="279" y="361.9951">Configuration has been saved</text><!--
@startuml TinyTasks
left to right direction

state "Conifg exists" as config
state "Config load" as load
state "Workers started" as start
state "Program running" as run
state "Workers stop" as stop
state "Config save" as save

[*] -> config
config -> [*] : [config file doesn't exist]
config -> load : [config file exist]
load -> start  : Configuration has been loaded
start -> run : All workers have been started
run -> stop : Workers shutdown \n [escape character has been pressed]
stop -> save : All workers have been stopped
save - -> [*] : Configuration has been saved

config: do\ File.Exist(config)

load: entry\ LoadConfig()

start: entry\ foreach worker: StartWorker()

run : do\ wait for Program exit
run : exit\ Escapecharacter read from input

stop : entry\ foreach worker: AbortWorker()

save : do\ SaveConfig()
@enduml

PlantUML version 1.2019.06(Fri May 24 19:10:25 CEST 2019)
(GPL source distribution)
Java Runtime: OpenJDK Runtime Environment
JVM: OpenJDK 64-Bit Server VM
Java Version: 1.8.0_212-b03
Operating System: Windows 10
OS Version: 10.0
Default Encoding: Cp1252
Language: de
Country: DE
--></g></svg>