<?xml version="1.0" encoding="UTF-8" standalone="no"?><svg xmlns="http://www.w3.org/2000/svg" xmlns:xlink="http://www.w3.org/1999/xlink" contentScriptType="application/ecmascript" contentStyleType="text/css" height="695px" preserveAspectRatio="none" style="width:513px;height:695px;" version="1.1" viewBox="0 0 513 695" width="513px" zoomAndPan="magnify"><defs><filter height="300%" id="f1xv50mcxa04on" width="300%" x="-1" y="-1"><feGaussianBlur result="blurOut" stdDeviation="2.0"/><feColorMatrix in="blurOut" result="blurOut2" type="matrix" values="0 0 0 0 0 0 0 0 0 0 0 0 0 0 0 0 0 0 .4 0"/><feOffset dx="4.0" dy="4.0" in="blurOut2" result="blurOut3"/><feBlend in="SourceGraphic" in2="blurOut3" mode="normal"/></filter></defs><g><!--class Worker--><rect fill="#FEFECE" filter="url(#f1xv50mcxa04on)" height="131.0156" id="Worker" style="stroke: #A80036; stroke-width: 1.5;" width="280" x="222" y="335"/><ellipse cx="337.75" cy="351" fill="#A9DCDF" rx="11" ry="11" style="stroke: #A80036; stroke-width: 1.0;"/><path d="M339.9375,352.7656 L335.7969,352.7656 L335.375,353.7969 L335.7969,353.7969 Q336.4063,353.7969 336.6719,354.0313 Q336.9375,354.2656 336.9375,354.6563 Q336.9375,355.0313 336.6719,355.2656 Q336.4063,355.5 335.7969,355.5 L333.5,355.5 Q332.8906,355.5 332.6328,355.2656 Q332.375,355.0313 332.375,354.6406 Q332.375,354.2656 332.6484,354.0234 Q332.9219,353.7813 333.5469,353.7969 L336.2188,347.1406 L335.1094,347.1406 Q334.5,347.1406 334.2344,346.9063 Q333.9688,346.6719 333.9688,346.2813 Q333.9688,345.9063 334.2344,345.6719 Q334.5,345.4375 335.1094,345.4375 L338.7813,345.4375 L342.1719,353.7969 Q342.7656,353.7969 342.9531,353.9375 Q343.3438,354.2031 343.3438,354.6563 Q343.3438,355.0313 343.0859,355.2656 Q342.8281,355.5 342.2188,355.5 L339.9219,355.5 Q339.3125,355.5 339.0469,355.2656 Q338.7813,355.0313 338.7813,354.6406 Q338.7813,354.2656 339.0469,354.0313 Q339.3125,353.7969 339.9219,353.7969 L340.3438,353.7969 L339.9375,352.7656 Z M339.2188,351.0625 L337.8594,347.6875 L336.4844,351.0625 L339.2188,351.0625 Z "/><text fill="#000000" font-family="sans-serif" font-size="12" font-style="italic" lengthAdjust="spacingAndGlyphs" textLength="40" x="358.25" y="355.9102">Worker</text><line style="stroke: #A80036; stroke-width: 1.5;" x1="223" x2="501" y1="367" y2="367"/><rect fill="none" height="6" style="stroke: #C82930; stroke-width: 1.0;" width="6" x="230" y="376.418"/><text fill="#000000" font-family="sans-serif" font-size="11" lengthAdjust="spacingAndGlyphs" textLength="80" x="242" y="382.4189">identifier: Integer</text><polygon fill="none" points="233,388.2539,237,392.2539,233,396.2539,229,392.2539" style="stroke: #B38D22; stroke-width: 1.0;"/><text fill="#000000" font-family="sans-serif" font-size="11" lengthAdjust="spacingAndGlyphs" textLength="128" x="242" y="396.2549">manager : WorkerManager</text><line style="stroke: #A80036; stroke-width: 1.5;" x1="223" x2="501" y1="402.6719" y2="402.6719"/><polygon fill="#FFFF44" points="233,410.0898,237,414.0898,233,418.0898,229,414.0898" style="stroke: #B38D22; stroke-width: 1.0;"/><text fill="#000000" font-family="sans-serif" font-size="11" lengthAdjust="spacingAndGlyphs" textLength="254" x="242" y="418.0908">Worker(identifier: Integer, manager: WorkerManager)</text><text fill="#000000" font-family="sans-serif" font-size="11" lengthAdjust="spacingAndGlyphs" textLength="0" x="245" y="431.9268"/><ellipse cx="233" cy="442.7617" fill="#84BE84" rx="3" ry="3" style="stroke: #038048; stroke-width: 1.0;"/><text fill="#000000" font-family="sans-serif" font-size="11" font-style="italic" lengthAdjust="spacingAndGlyphs" textLength="152" x="242" y="445.7627">bool Start(reader: TextReader)</text><ellipse cx="233" cy="456.5977" fill="#84BE84" rx="3" ry="3" style="stroke: #038048; stroke-width: 1.0;"/><text fill="#000000" font-family="sans-serif" font-size="11" font-style="italic" lengthAdjust="spacingAndGlyphs" textLength="146" x="242" y="459.5986">bool Abort(writer: TextWriter)</text><!--class BackupWorker--><rect fill="#FEFECE" filter="url(#f1xv50mcxa04on)" height="158.6875" id="BackupWorker" style="stroke: #A80036; stroke-width: 1.5;" width="458" x="6" y="526"/><ellipse cx="190.75" cy="542" fill="#ADD1B2" rx="11" ry="11" style="stroke: #A80036; stroke-width: 1.0;"/><path d="M193.5156,537.875 Q193.6719,537.6563 193.8594,537.5469 Q194.0469,537.4375 194.2656,537.4375 Q194.6406,537.4375 194.875,537.6953 Q195.1094,537.9531 195.1094,538.5625 L195.1094,540.0156 Q195.1094,540.625 194.875,540.8906 Q194.6406,541.1563 194.2656,541.1563 Q193.9219,541.1563 193.7188,540.9531 Q193.5156,540.7656 193.4063,540.25 Q193.3594,539.8906 193.1719,539.7031 Q192.8438,539.3281 192.2344,539.1094 Q191.625,538.8906 191,538.8906 Q190.2344,538.8906 189.6016,539.2188 Q188.9688,539.5469 188.4766,540.2969 Q187.9844,541.0469 187.9844,542.0781 L187.9844,543.1719 Q187.9844,544.4063 188.875,545.2266 Q189.7656,546.0469 191.3594,546.0469 Q192.2969,546.0469 192.9531,545.7969 Q193.3438,545.6406 193.7656,545.2031 Q194.0313,544.9375 194.1797,544.8594 Q194.3281,544.7813 194.5313,544.7813 Q194.8594,544.7813 195.1172,545.0391 Q195.375,545.2969 195.375,545.6406 Q195.375,545.9844 195.0313,546.3906 Q194.5313,546.9688 193.7344,547.2969 Q192.6563,547.75 191.3594,547.75 Q189.8438,547.75 188.6406,547.125 Q187.6563,546.625 186.9688,545.5547 Q186.2813,544.4844 186.2813,543.2031 L186.2813,542.0469 Q186.2813,540.7188 186.8984,539.5703 Q187.5156,538.4219 188.6094,537.8047 Q189.7031,537.1875 190.9375,537.1875 Q191.6719,537.1875 192.3203,537.3516 Q192.9688,537.5156 193.5156,537.875 Z "/><text fill="#000000" font-family="sans-serif" font-size="12" lengthAdjust="spacingAndGlyphs" textLength="80" x="211.25" y="546.9102">BackupWorker</text><line style="stroke: #A80036; stroke-width: 1.5;" x1="7" x2="463" y1="558" y2="558"/><rect fill="none" height="6" style="stroke: #C82930; stroke-width: 1.0;" width="6" x="14" y="567.418"/><text fill="#000000" font-family="sans-serif" font-size="11" lengthAdjust="spacingAndGlyphs" textLength="145" x="26" y="573.4189">source: String {File, Directory}</text><rect fill="none" height="6" style="stroke: #C82930; stroke-width: 1.0;" width="6" x="14" y="581.2539"/><text fill="#000000" font-family="sans-serif" font-size="11" lengthAdjust="spacingAndGlyphs" textLength="139" x="26" y="587.2549">target: String {File, Directory}</text><rect fill="none" height="6" style="stroke: #C82930; stroke-width: 1.0;" width="6" x="14" y="595.0898"/><text fill="#000000" font-family="sans-serif" font-size="11" lengthAdjust="spacingAndGlyphs" textLength="49" x="26" y="601.0908">task: Task</text><rect fill="none" height="6" style="stroke: #C82930; stroke-width: 1.0;" width="6" x="14" y="608.9258"/><text fill="#000000" font-family="sans-serif" font-size="11" lengthAdjust="spacingAndGlyphs" textLength="112" x="26" y="614.9268">observer: FileObserver</text><line style="stroke: #A80036; stroke-width: 1.5;" x1="7" x2="463" y1="621.3438" y2="621.3438"/><ellipse cx="17" cy="633.7617" fill="#84BE84" rx="3" ry="3" style="stroke: #038048; stroke-width: 1.0;"/><text fill="#000000" font-family="sans-serif" font-size="11" lengthAdjust="spacingAndGlyphs" textLength="432" x="26" y="636.7627">BackupWorker(identifier: Integer, manager: WorkerManager, source: String, target: String)</text><text fill="#000000" font-family="sans-serif" font-size="11" lengthAdjust="spacingAndGlyphs" textLength="0" x="29" y="650.5986"/><ellipse cx="17" cy="661.4336" fill="#84BE84" rx="3" ry="3" style="stroke: #038048; stroke-width: 1.0;"/><text fill="#000000" font-family="sans-serif" font-size="11" lengthAdjust="spacingAndGlyphs" textLength="145" x="26" y="664.4346">bool Start(TextReader reader)</text><ellipse cx="17" cy="675.2695" fill="#84BE84" rx="3" ry="3" style="stroke: #038048; stroke-width: 1.0;"/><text fill="#000000" font-family="sans-serif" font-size="11" lengthAdjust="spacingAndGlyphs" textLength="140" x="26" y="678.2705">bool Abort(TextWriter writer)</text><!--class WorkerManager--><rect fill="#FEFECE" filter="url(#f1xv50mcxa04on)" height="131.0156" id="WorkerManager" style="stroke: #A80036; stroke-width: 1.5;" width="186" x="269" y="144"/><ellipse cx="314.25" cy="160" fill="#ADD1B2" rx="11" ry="11" style="stroke: #A80036; stroke-width: 1.0;"/><path d="M317.0156,155.875 Q317.1719,155.6563 317.3594,155.5469 Q317.5469,155.4375 317.7656,155.4375 Q318.1406,155.4375 318.375,155.6953 Q318.6094,155.9531 318.6094,156.5625 L318.6094,158.0156 Q318.6094,158.625 318.375,158.8906 Q318.1406,159.1563 317.7656,159.1563 Q317.4219,159.1563 317.2188,158.9531 Q317.0156,158.7656 316.9063,158.25 Q316.8594,157.8906 316.6719,157.7031 Q316.3438,157.3281 315.7344,157.1094 Q315.125,156.8906 314.5,156.8906 Q313.7344,156.8906 313.1016,157.2188 Q312.4688,157.5469 311.9766,158.2969 Q311.4844,159.0469 311.4844,160.0781 L311.4844,161.1719 Q311.4844,162.4063 312.375,163.2266 Q313.2656,164.0469 314.8594,164.0469 Q315.7969,164.0469 316.4531,163.7969 Q316.8438,163.6406 317.2656,163.2031 Q317.5313,162.9375 317.6797,162.8594 Q317.8281,162.7813 318.0313,162.7813 Q318.3594,162.7813 318.6172,163.0391 Q318.875,163.2969 318.875,163.6406 Q318.875,163.9844 318.5313,164.3906 Q318.0313,164.9688 317.2344,165.2969 Q316.1563,165.75 314.8594,165.75 Q313.3438,165.75 312.1406,165.125 Q311.1563,164.625 310.4688,163.5547 Q309.7813,162.4844 309.7813,161.2031 L309.7813,160.0469 Q309.7813,158.7188 310.3984,157.5703 Q311.0156,156.4219 312.1094,155.8047 Q313.2031,155.1875 314.4375,155.1875 Q315.1719,155.1875 315.8203,155.3516 Q316.4688,155.5156 317.0156,155.875 Z "/><text fill="#000000" font-family="sans-serif" font-size="12" lengthAdjust="spacingAndGlyphs" textLength="87" x="334.75" y="164.9102">WorkerManager</text><line style="stroke: #A80036; stroke-width: 1.5;" x1="270" x2="454" y1="176" y2="176"/><rect fill="none" height="6" style="stroke: #C82930; stroke-width: 1.0;" width="6" x="277" y="185.418"/><text fill="#000000" font-family="sans-serif" font-size="11" lengthAdjust="spacingAndGlyphs" textLength="114" x="289" y="191.4189">workers : List&lt;Worker&gt;</text><rect fill="none" height="6" style="stroke: #C82930; stroke-width: 1.0;" width="6" x="277" y="199.2539"/><text fill="#000000" font-family="sans-serif" font-size="11" lengthAdjust="spacingAndGlyphs" textLength="101" x="289" y="205.2549">storage : String {File}</text><line style="stroke: #A80036; stroke-width: 1.5;" x1="270" x2="454" y1="211.6719" y2="211.6719"/><ellipse cx="280" cy="224.0898" fill="#84BE84" rx="3" ry="3" style="stroke: #038048; stroke-width: 1.0;"/><text fill="#000000" font-family="sans-serif" font-size="11" lengthAdjust="spacingAndGlyphs" textLength="91" x="289" y="227.0908">bool StartService()</text><ellipse cx="280" cy="237.9258" fill="#84BE84" rx="3" ry="3" style="stroke: #038048; stroke-width: 1.0;"/><text fill="#000000" font-family="sans-serif" font-size="11" lengthAdjust="spacingAndGlyphs" textLength="95" x="289" y="240.9268">bool AbortService()</text><text fill="#000000" font-family="sans-serif" font-size="11" lengthAdjust="spacingAndGlyphs" textLength="0" x="292" y="254.7627"/><ellipse cx="280" cy="265.5977" fill="#84BE84" rx="3" ry="3" style="stroke: #038048; stroke-width: 1.0;"/><text fill="#000000" font-family="sans-serif" font-size="11" lengthAdjust="spacingAndGlyphs" textLength="160" x="289" y="268.5986">Worker CreateWorker(id: Integer)</text><!--class FileObserver--><rect fill="#FEFECE" filter="url(#f1xv50mcxa04on)" height="75.6719" id="FileObserver" style="stroke: #A80036; stroke-width: 1.5;" width="155" x="31.5" y="362.5"/><ellipse cx="70.35" cy="378.5" fill="#ADD1B2" rx="11" ry="11" style="stroke: #A80036; stroke-width: 1.0;"/><path d="M73.1156,374.375 Q73.2719,374.1563 73.4594,374.0469 Q73.6469,373.9375 73.8656,373.9375 Q74.2406,373.9375 74.475,374.1953 Q74.7094,374.4531 74.7094,375.0625 L74.7094,376.5156 Q74.7094,377.125 74.475,377.3906 Q74.2406,377.6563 73.8656,377.6563 Q73.5219,377.6563 73.3188,377.4531 Q73.1156,377.2656 73.0063,376.75 Q72.9594,376.3906 72.7719,376.2031 Q72.4438,375.8281 71.8344,375.6094 Q71.225,375.3906 70.6,375.3906 Q69.8344,375.3906 69.2016,375.7188 Q68.5688,376.0469 68.0766,376.7969 Q67.5844,377.5469 67.5844,378.5781 L67.5844,379.6719 Q67.5844,380.9063 68.475,381.7266 Q69.3656,382.5469 70.9594,382.5469 Q71.8969,382.5469 72.5531,382.2969 Q72.9438,382.1406 73.3656,381.7031 Q73.6313,381.4375 73.7797,381.3594 Q73.9281,381.2813 74.1313,381.2813 Q74.4594,381.2813 74.7172,381.5391 Q74.975,381.7969 74.975,382.1406 Q74.975,382.4844 74.6313,382.8906 Q74.1313,383.4688 73.3344,383.7969 Q72.2563,384.25 70.9594,384.25 Q69.4438,384.25 68.2406,383.625 Q67.2563,383.125 66.5688,382.0547 Q65.8813,380.9844 65.8813,379.7031 L65.8813,378.5469 Q65.8813,377.2188 66.4984,376.0703 Q67.1156,374.9219 68.2094,374.3047 Q69.3031,373.6875 70.5375,373.6875 Q71.2719,373.6875 71.9203,373.8516 Q72.5688,374.0156 73.1156,374.375 Z "/><text fill="#000000" font-family="sans-serif" font-size="12" lengthAdjust="spacingAndGlyphs" textLength="70" x="89.65" y="383.4102">FileObserver</text><line style="stroke: #A80036; stroke-width: 1.5;" x1="32.5" x2="185.5" y1="394.5" y2="394.5"/><ellipse cx="42.5" cy="406.918" fill="none" rx="3" ry="3" style="stroke: #038048; stroke-width: 1.0;"/><text fill="#000000" font-family="sans-serif" font-size="11" lengthAdjust="spacingAndGlyphs" textLength="129" x="51.5" y="409.9189">List&lt;String&gt; Changes {get}</text><line style="stroke: #A80036; stroke-width: 1.5;" x1="32.5" x2="185.5" y1="416.3359" y2="416.3359"/><ellipse cx="42.5" cy="428.7539" fill="#84BE84" rx="3" ry="3" style="stroke: #038048; stroke-width: 1.0;"/><text fill="#000000" font-family="sans-serif" font-size="11" lengthAdjust="spacingAndGlyphs" textLength="117" x="51.5" y="431.7549">FileObserver(file: string)</text><!--class Entrypoint--><rect fill="#FEFECE" filter="url(#f1xv50mcxa04on)" height="75.6719" id="Entrypoint" style="stroke: #A80036; stroke-width: 1.5;" width="154" x="285" y="8"/><ellipse cx="330.75" cy="24" fill="#ADD1B2" rx="11" ry="11" style="stroke: #A80036; stroke-width: 1.0;"/><path d="M333.5156,19.875 Q333.6719,19.6563 333.8594,19.5469 Q334.0469,19.4375 334.2656,19.4375 Q334.6406,19.4375 334.875,19.6953 Q335.1094,19.9531 335.1094,20.5625 L335.1094,22.0156 Q335.1094,22.625 334.875,22.8906 Q334.6406,23.1563 334.2656,23.1563 Q333.9219,23.1563 333.7188,22.9531 Q333.5156,22.7656 333.4063,22.25 Q333.3594,21.8906 333.1719,21.7031 Q332.8438,21.3281 332.2344,21.1094 Q331.625,20.8906 331,20.8906 Q330.2344,20.8906 329.6016,21.2188 Q328.9688,21.5469 328.4766,22.2969 Q327.9844,23.0469 327.9844,24.0781 L327.9844,25.1719 Q327.9844,26.4063 328.875,27.2266 Q329.7656,28.0469 331.3594,28.0469 Q332.2969,28.0469 332.9531,27.7969 Q333.3438,27.6406 333.7656,27.2031 Q334.0313,26.9375 334.1797,26.8594 Q334.3281,26.7813 334.5313,26.7813 Q334.8594,26.7813 335.1172,27.0391 Q335.375,27.2969 335.375,27.6406 Q335.375,27.9844 335.0313,28.3906 Q334.5313,28.9688 333.7344,29.2969 Q332.6563,29.75 331.3594,29.75 Q329.8438,29.75 328.6406,29.125 Q327.6563,28.625 326.9688,27.5547 Q326.2813,26.4844 326.2813,25.2031 L326.2813,24.0469 Q326.2813,22.7188 326.8984,21.5703 Q327.5156,20.4219 328.6094,19.8047 Q329.7031,19.1875 330.9375,19.1875 Q331.6719,19.1875 332.3203,19.3516 Q332.9688,19.5156 333.5156,19.875 Z "/><text fill="#000000" font-family="sans-serif" font-size="12" lengthAdjust="spacingAndGlyphs" textLength="54" x="351.25" y="28.9102">Entrypoint</text><line style="stroke: #A80036; stroke-width: 1.5;" x1="286" x2="438" y1="40" y2="40"/><rect fill="none" height="6" style="stroke: #C82930; stroke-width: 1.0;" width="6" x="293" y="49.418"/><text fill="#000000" font-family="sans-serif" font-size="11" lengthAdjust="spacingAndGlyphs" text-decoration="underline" textLength="128" x="305" y="55.4189">manager : WorkerManager</text><line style="stroke: #000000; stroke-width: 1.0;" x1="305" x2="433" y1="57.4189" y2="57.4189"/><line style="stroke: #A80036; stroke-width: 1.5;" x1="286" x2="438" y1="61.8359" y2="61.8359"/><ellipse cx="296" cy="74.2539" fill="#84BE84" rx="3" ry="3" style="stroke: #038048; stroke-width: 1.0;"/><text fill="#000000" font-family="sans-serif" font-size="11" lengthAdjust="spacingAndGlyphs" text-decoration="underline" textLength="114" x="305" y="77.2549">void Main(args: string[])</text><line style="stroke: #000000; stroke-width: 1.0;" x1="305" x2="419" y1="79.2549" y2="79.2549"/><!--link Worker to BackupWorker--><path d="M310.753,483.414 C301.978,497.44 292.879,511.985 284.16,525.922 " fill="none" id="Worker-BackupWorker" style="stroke: #A80036; stroke-width: 1.0;"/><polygon fill="none" points="305.1,479.252,321.642,466.009,316.969,486.677,305.1,479.252" style="stroke: #A80036; stroke-width: 1.0;"/><!--link Entrypoint to WorkerManager--><path d="M362,84.051 C362,101.745 362,123.445 362,143.741 " fill="none" id="Entrypoint-WorkerManager" style="stroke: #A80036; stroke-width: 1.0;"/><text fill="#000000" font-family="sans-serif" font-size="13" lengthAdjust="spacingAndGlyphs" textLength="7" x="354.4203" y="105.2296">1</text><text fill="#000000" font-family="sans-serif" font-size="13" lengthAdjust="spacingAndGlyphs" textLength="7" x="354.6172" y="133.1871">1</text><!--link WorkerManager to Worker--><path d="M362,275.014 C362,294.37 362,315.598 362,334.956 " fill="none" id="WorkerManager-Worker" style="stroke: #A80036; stroke-width: 1.0;"/><text fill="#000000" font-family="sans-serif" font-size="13" lengthAdjust="spacingAndGlyphs" textLength="7" x="354.6172" y="296.5681">1</text><text fill="#000000" font-family="sans-serif" font-size="13" lengthAdjust="spacingAndGlyphs" textLength="7" x="354.5953" y="323.967">n</text><!--link FileObserver to BackupWorker--><path d="M132.11,438.733 C147.243,463.114 167.592,495.898 186.198,525.874 " fill="none" id="FileObserver-BackupWorker" style="stroke: #A80036; stroke-width: 1.0;"/><text fill="#000000" font-family="sans-serif" font-size="13" lengthAdjust="spacingAndGlyphs" textLength="7" x="128.2353" y="459.6507">1</text><text fill="#000000" font-family="sans-serif" font-size="13" lengthAdjust="spacingAndGlyphs" textLength="7" x="174.213" y="515.0489">1</text><!--
@startuml

 abstract class Worker {
    -identifier: Integer 
    #manager : WorkerManager
    
    #Worker(identifier: Integer, manager: WorkerManager)

    {abstract} +bool Start(reader: TextReader)
    {abstract} +bool Abort(writer: TextWriter)
}

class BackupWorker extends Worker  {
    -source: String {File, Directory}
    -target: String {File, Directory}
    -task: Task
    -observer: FileObserver

    +BackupWorker(identifier: Integer, manager: WorkerManager, source: String, target: String)

    +bool Start(TextReader reader)
    +bool Abort(TextWriter writer)
}
 
class WorkerManager {
    -workers : List<Worker>
    -storage : String {File}

    +bool StartService()
    +bool AbortService()

    +Worker CreateWorker(id: Integer)
}

class FileObserver {
    +FileObserver(file: string)

    +List<String> Changes {get} 
}

class Entrypoint {
    -{static} manager : WorkerManager

    {static} +void Main(args: string[])
}

Entrypoint "1" - - "1" WorkerManager
WorkerManager "1" - - "n" Worker
FileObserver "1" - - "1" BackupWorker

@enduml

PlantUML version 1.2019.03(Sun Mar 10 12:04:44 CET 2019)
(GPL source distribution)
Java Runtime: Java(TM) SE Runtime Environment
JVM: Java HotSpot(TM) 64-Bit Server VM
Java Version: 1.8.0_211-b12
Operating System: Windows 10
OS Version: 10.0
Default Encoding: Cp1252
Language: de
Country: DE
--></g></svg>